<svg width="32" height="33" viewBox="0 0 32 33" fill="none" xmlns="http://www.w3.org/2000/svg">
<g style="mix-blend-mode:multiply">
<circle cx="16" cy="16.2671" r="14" fill="#00A82D"/>
<path d="M12.7 11.3115C12.7 11.4906 12.6855 11.789 12.5109 11.983C12.3217 12.1621 12.0307 12.1771 11.856 12.1771C10.8737 12.1771 9.51113 11.9302 8.58205 12.3114C10 9.76709 12.7469 8.07643 12.7291 8.22222C12.5982 9.229 12.7 10.2988 12.7 11.3115ZM15.6393 22.8626C15.6393 21.6239 16.6288 20.6091 17.8511 20.6091C18.2149 20.6091 18.5059 20.9075 18.5059 21.2806C18.5059 21.5343 18.375 21.7433 18.1712 21.8627C17.9494 21.9992 17.6421 21.9355 17.4437 22.1164C17.2982 22.2358 17.1818 22.4298 17.1818 22.6387C17.1818 22.8626 17.2691 23.0715 17.4146 23.2207C17.6765 23.4894 18.0257 23.6386 18.4041 23.6386C19.3935 23.6386 20.1938 22.8178 20.1938 21.803C20.1938 20.8926 19.5972 20.0867 18.8115 19.7286C17.619 19.117 15.7945 19.465 15.6539 17.5497C15.4352 18.5627 14.9527 20.3703 13.6458 20.3703C9.69801 20.6108 8.27507 17.413 8 14.0276C8 13.2963 8.43653 12.8039 8.98948 12.7292C9.97895 12.7292 10.9684 12.7292 11.9579 12.7292C12.4672 12.7292 12.7582 12.5949 12.9474 12.4158C13.1948 12.1771 13.253 11.8338 13.253 11.4309C13.253 10.3812 13.253 8.76709 13.253 8.28192C13.253 7.64829 13.8059 7.26709 14.5189 7.26709C14.9389 7.26709 15.3331 7.28185 15.7412 7.38648C16.6288 7.61034 16.818 8.53562 16.818 8.53562C16.818 8.53562 18.4914 8.8341 19.3353 8.98334C20.1356 9.13258 22.1146 9.26689 22.4929 11.3115C23.3805 16.1767 22.8422 20.8926 22.7985 20.8926C22.1728 25.4892 18.4477 25.2653 18.4477 25.2653C17.0936 25.2653 15.6393 24.3412 15.6393 22.8626ZM20.0047 14.938C19.5245 14.8932 19.1171 15.0872 18.9716 15.4603C18.7653 15.989 20.8923 16.4287 20.8923 15.6991C20.8341 15.2812 20.4849 14.9977 20.0047 14.938Z" fill="white"/>
</g>
</svg>
