<svg width="32" height="33" viewBox="0 0 32 33" fill="none" xmlns="http://www.w3.org/2000/svg">
<g style="mix-blend-mode:multiply">
<path d="M30.0014 16.578C30.0014 15.4269 29.9061 14.5869 29.6998 13.7158H16.2871V18.9113H24.1601C24.0014 20.2025 23.1442 22.1469 21.2394 23.4535L21.2127 23.6275L25.4536 26.8471L25.7474 26.8758C28.4458 24.4336 30.0014 20.8402 30.0014 16.578Z" fill="#4285F4"/>
<path d="M16.2863 30.2671C20.1434 30.2671 23.3814 29.0226 25.7466 26.876L21.2386 23.4536C20.0323 24.2781 18.4132 24.8536 16.2863 24.8536C12.5086 24.8536 9.30225 22.4115 8.15929 19.0359L7.99176 19.0498L3.58208 22.3943L3.52441 22.5514C5.87359 27.1248 10.699 30.2671 16.2863 30.2671Z" fill="#34A853"/>
<path d="M8.16013 19.0359C7.85855 18.1648 7.68401 17.2314 7.68401 16.267C7.68401 15.3025 7.85855 14.3692 8.14426 13.4981L8.13627 13.3126L3.67132 9.91443L3.52524 9.98253C2.55703 11.8803 2.00146 14.0115 2.00146 16.267C2.00146 18.5226 2.55703 20.6536 3.52524 22.5514L8.16013 19.0359Z" fill="#FBBC05"/>
<path d="M16.2864 7.68039C18.9689 7.68039 20.7784 8.81594 21.8102 9.76489L25.8419 5.90709C23.3658 3.65154 20.1435 2.26709 16.2864 2.26709C10.699 2.26709 5.8736 5.40929 3.52441 9.98258L8.14345 13.4982C9.30229 10.1226 12.5086 7.68039 16.2864 7.68039Z" fill="#EB4335"/>
</g>
</svg>
