<svg width="32" height="33" viewBox="0 0 32 33" fill="none" xmlns="http://www.w3.org/2000/svg">
<g style="mix-blend-mode:multiply">
<path fill-rule="evenodd" clip-rule="evenodd" d="M5.716 29.4849L2.27664 25.2002C1.44913 24.1694 1 22.9017 1 21.597V6.08208C1 4.12773 2.56359 2.50606 4.58071 2.36834L20.5321 1.27927C21.691 1.20015 22.8428 1.50818 23.7948 2.15179L29.3992 5.941C30.4025 6.61928 31 7.72808 31 8.91135V26.5503C31 28.4628 29.4626 30.0464 27.4876 30.168L9.78333 31.2578C8.20733 31.3548 6.68399 30.6908 5.716 29.4849Z" fill="white"/>
<path d="M11.2481 13.8458V13.6427C11.2481 13.1278 11.6605 12.7008 12.192 12.6653L16.0633 12.4068L21.417 20.2906V13.3712L20.039 13.1875V13.0911C20.039 12.5701 20.4608 12.1403 20.9991 12.1127L24.5216 11.9323V12.4392C24.5216 12.6771 24.3446 12.8807 24.1021 12.9217L23.2544 13.0651V24.2708L22.1906 24.6366C21.3018 24.9423 20.3124 24.6151 19.8036 23.8474L14.6061 16.0043V23.4901L16.2058 23.7962L16.1836 23.9446C16.1137 24.4094 15.7124 24.761 15.227 24.7826L11.2481 24.9597C11.1955 24.4598 11.5701 24.0127 12.0869 23.9584L12.6103 23.9034V13.9223L11.2481 13.8458Z" fill="black"/>
<path fill-rule="evenodd" clip-rule="evenodd" d="M20.6749 3.23387L4.72347 4.32294C3.76799 4.38818 3.02734 5.15634 3.02734 6.08208V21.597C3.02734 22.4668 3.32676 23.3119 3.87843 23.9991L7.3178 28.2838C7.87388 28.9765 8.74899 29.358 9.65435 29.3023L27.3586 28.2124C28.266 28.1566 28.9724 27.429 28.9724 26.5503V8.91135C28.9724 8.36768 28.6979 7.85824 28.2369 7.5466L22.6325 3.75738C22.0613 3.37122 21.3702 3.1864 20.6749 3.23387ZM5.51447 6.32409C5.29261 6.15983 5.3982 5.81764 5.6769 5.79765L20.7822 4.7142C21.2635 4.67968 21.7417 4.81221 22.1309 5.08797L25.1617 7.23522C25.2767 7.31674 25.2228 7.49272 25.0803 7.50047L9.08387 8.37045C8.59977 8.39678 8.12193 8.25456 7.73701 7.96959L5.51447 6.32409ZM8.33357 11.0978C8.33357 10.5781 8.75341 10.1489 9.29027 10.1196L26.203 9.19854C26.7263 9.17005 27.1667 9.57243 27.1667 10.0789V25.3524C27.1667 25.8711 26.7484 26.2999 26.2126 26.3304L9.40688 27.2866C8.8246 27.3197 8.33357 26.8723 8.33357 26.3086V11.0978Z" fill="black"/>
</g>
</svg>
