<svg width="32" height="32" viewBox="0 0 32 32" fill="none" xmlns="http://www.w3.org/2000/svg">
<g style="mix-blend-mode:multiply" clip-path="url(#clip0_2942_8349)">
<path d="M16 32C24.8366 32 32 24.8366 32 16C32 7.16344 24.8366 0 16 0C7.16344 0 0 7.16344 0 16C0 24.8366 7.16344 32 16 32Z" fill="#FF4500"/>
<path d="M26.6665 16C26.6665 14.7088 25.6186 13.6608 24.3273 13.6608C23.6911 13.6608 23.1297 13.9041 22.718 14.3158C21.1273 13.1743 18.9191 12.4257 16.4864 12.3322L17.5531 7.33566L21.015 8.06549C21.0525 8.94502 21.7823 9.65613 22.6805 9.65613C23.5975 9.65613 24.346 8.90759 24.346 7.99063C24.346 7.07367 23.5975 6.32513 22.6805 6.32513C22.0256 6.32513 21.4642 6.6994 21.2022 7.26081L17.3285 6.43742C17.2162 6.4187 17.1039 6.43742 17.0104 6.49356C16.9168 6.5497 16.8607 6.64326 16.8232 6.75554L15.6443 12.3322C13.1554 12.407 10.9285 13.1368 9.31914 14.3158C8.90745 13.9228 8.32733 13.6608 7.70979 13.6608C6.41856 13.6608 5.37061 14.7088 5.37061 16C5.37061 16.9544 5.93201 17.7591 6.7554 18.1333C6.71797 18.3579 6.69926 18.6012 6.69926 18.8444C6.69926 22.4374 10.8724 25.338 16.0373 25.338C21.2022 25.338 25.3753 22.4374 25.3753 18.8444C25.3753 18.6012 25.3566 18.3766 25.3191 18.152C26.0864 17.7778 26.6665 16.9544 26.6665 16ZM10.6665 17.6655C10.6665 16.7485 11.4151 16 12.332 16C13.249 16 13.9975 16.7485 13.9975 17.6655C13.9975 18.5824 13.249 19.331 12.332 19.331C11.4151 19.331 10.6665 18.5824 10.6665 17.6655ZM19.9671 22.0631C18.8256 23.2047 16.6548 23.2795 16.0186 23.2795C15.3823 23.2795 13.1928 23.186 12.07 22.0631C11.9016 21.8947 11.9016 21.614 12.07 21.4456C12.2384 21.2772 12.5191 21.2772 12.6876 21.4456C13.3987 22.1567 14.9332 22.4187 16.0373 22.4187C17.1414 22.4187 18.6572 22.1567 19.387 21.4456C19.5554 21.2772 19.8361 21.2772 20.0045 21.4456C20.1355 21.6327 20.1355 21.8947 19.9671 22.0631ZM19.6677 19.331C18.7507 19.331 18.0022 18.5824 18.0022 17.6655C18.0022 16.7485 18.7507 16 19.6677 16C20.5846 16 21.3332 16.7485 21.3332 17.6655C21.3332 18.5824 20.5846 19.331 19.6677 19.331Z" fill="white"/>
</g>
<defs>
<clipPath id="clip0_2942_8349">
<rect width="32" height="32" fill="white"/>
</clipPath>
</defs>
</svg>
