<svg width="32" height="32" viewBox="0 0 32 32" fill="none" xmlns="http://www.w3.org/2000/svg">
<path d="M31.8856 23.2906C31.6632 22.6854 31.2397 22.3615 30.7573 22.0933C30.6666 22.0401 30.5832 21.9976 30.5121 21.9649C30.3682 21.8905 30.221 21.8185 30.0746 21.7424C28.5711 20.9451 27.397 19.9391 26.5827 18.7467C26.3515 18.411 26.1509 18.0552 25.9834 17.6835C25.9139 17.4848 25.9172 17.3719 25.9671 17.2689C26.0165 17.1895 26.082 17.1213 26.1592 17.0685C26.4176 16.8976 26.6841 16.7242 26.8648 16.6073C27.1869 16.3987 27.442 16.2335 27.6063 16.1166C28.2236 15.6848 28.6553 15.2259 28.9251 14.7132C29.1134 14.3589 29.2231 13.9682 29.247 13.5677C29.2708 13.1672 29.2082 12.7663 29.0633 12.3922C28.6545 11.3159 27.6382 10.6477 26.4069 10.6477C26.1472 10.6475 25.8882 10.6749 25.6343 10.7295C25.5665 10.7442 25.4986 10.7598 25.4324 10.7769C25.4438 10.0409 25.4275 9.26394 25.3621 8.49927C25.1299 5.81105 24.1888 4.40192 23.2077 3.27822C22.5794 2.57406 21.8394 1.97832 21.0174 1.51497C19.5286 0.664421 17.8402 0.232605 15.9998 0.232605C14.1594 0.232605 12.4793 0.664421 10.9888 1.51497C10.1648 1.97846 9.42328 2.57539 8.79443 3.28149C7.81332 4.40519 6.87227 5.81677 6.64008 8.50254C6.57467 9.26721 6.55832 10.0482 6.56895 10.7802C6.50272 10.763 6.43568 10.7475 6.36782 10.7328C6.11391 10.6782 5.85491 10.6507 5.5952 10.651C4.36309 10.651 3.34519 11.3192 2.93803 12.3954C2.7925 12.7697 2.72922 13.1709 2.7525 13.5719C2.77578 13.9728 2.88506 14.364 3.07294 14.7189C3.34356 15.2317 3.77525 15.6905 4.39253 16.1223C4.55604 16.2368 4.81195 16.402 5.13408 16.613C5.30823 16.7259 5.5625 16.8911 5.81186 17.0563C5.89911 17.1127 5.97326 17.1871 6.02934 17.2746C6.08167 17.3818 6.0833 17.4971 6.00563 17.7097C5.84043 18.0736 5.64315 18.422 5.41615 18.7508C4.61982 19.9162 3.4801 20.9042 2.02479 21.695C1.2538 22.1039 0.452563 22.3771 0.114081 23.2971C-0.141007 23.9915 0.0257811 24.7815 0.674129 25.4472C0.912079 25.6957 1.18806 25.9047 1.49172 26.0663C2.12354 26.4137 2.79539 26.6825 3.49236 26.867C3.63619 26.9041 3.77273 26.9652 3.89625 27.0477C4.13253 27.2546 4.09901 27.5662 4.41378 28.0226C4.57179 28.2584 4.77256 28.4626 5.00572 28.6245C5.66633 29.0809 6.4087 29.1095 7.19522 29.1398C7.90571 29.1667 8.71103 29.1978 9.63082 29.5012C10.0118 29.6272 10.4075 29.8709 10.8662 30.1555C11.9675 30.8327 13.4751 31.7593 15.9982 31.7593C18.5213 31.7593 20.0395 30.8278 21.149 30.1481C21.6044 29.8684 21.9977 29.6272 22.368 29.5045C23.2878 29.2003 24.0932 29.17 24.8036 29.143C25.5902 29.1128 26.3325 29.0841 26.9931 28.6278C27.2693 28.4352 27.4993 28.1838 27.6668 27.8917C27.8933 27.5065 27.8876 27.2375 28.1002 27.0494C28.216 26.9708 28.3443 26.9122 28.4795 26.876C29.186 26.691 29.867 26.4196 30.5071 26.068C30.8298 25.8948 31.1202 25.6674 31.3656 25.3957L31.3738 25.3859C31.9821 24.7349 32.135 23.9678 31.8856 23.2906ZM29.643 24.4961C28.2751 25.2518 27.366 25.1708 26.6588 25.6263C26.0578 26.0132 26.4135 26.8474 25.9769 27.1483C25.4405 27.5188 23.8552 27.1222 21.8072 27.7985C20.118 28.3571 19.0405 29.9633 16.0023 29.9633C12.9641 29.9633 11.9119 28.3604 10.195 27.7944C8.15098 27.1181 6.56241 27.5147 6.02525 27.1442C5.58948 26.8433 5.94349 26.0091 5.34338 25.6222C4.63535 25.1667 3.72619 25.2477 2.35918 24.4961C1.48845 24.0152 1.98227 23.7175 2.27252 23.5768C7.22711 21.1773 8.01772 17.4725 8.05287 17.1977C8.09539 16.8649 8.14281 16.6032 7.77653 16.2646C7.42251 15.9375 5.85192 14.9651 5.41615 14.6608C4.69503 14.157 4.37781 13.6541 4.61164 13.0358C4.77516 12.6081 5.17414 12.447 5.59275 12.447C5.72505 12.4474 5.85691 12.4622 5.98601 12.4911C6.77743 12.6629 7.54597 13.0595 7.98992 13.1666C8.04337 13.1804 8.09826 13.1878 8.15344 13.1887C8.39054 13.1887 8.47393 13.0693 8.45758 12.7978C8.40689 11.9317 8.28425 10.2437 8.42079 8.66611C8.60802 6.49557 9.30705 5.42012 10.1377 4.46898C10.5367 4.01181 12.4114 2.0302 15.9966 2.0302C19.5817 2.0302 21.4613 4.00364 21.8603 4.45917C22.6918 5.41031 23.3917 6.48576 23.5773 8.65629C23.7138 10.2339 23.5961 11.9227 23.5405 12.788C23.5217 13.0734 23.6075 13.1789 23.8446 13.1789C23.8998 13.178 23.9547 13.1706 24.0081 13.1568C24.4529 13.0497 25.2214 12.653 26.0129 12.4813C26.142 12.4523 26.2738 12.4375 26.4061 12.4371C26.8272 12.4371 27.2237 12.6007 27.3872 13.026C27.6211 13.6443 27.3055 14.1472 26.5835 14.651C26.1478 14.9552 24.5772 15.9268 24.2232 16.2548C23.8561 16.5934 23.9043 16.8551 23.9468 17.1879C23.982 17.4668 24.7718 21.1716 29.7272 23.567C30.0199 23.7134 30.5137 24.0111 29.643 24.4961Z" fill="black"/>
</svg>
