<svg width="32" height="32" viewBox="0 0 32 32" fill="none" xmlns="http://www.w3.org/2000/svg">
<g style="mix-blend-mode:multiply">
<path d="M22.9021 11.5513C24.9599 13.0275 27.4808 13.8961 30.2035 13.8961V8.63817C29.6882 8.63828 29.1743 8.58435 28.6702 8.47717V12.6159C25.9477 12.6159 23.4271 11.7473 21.3688 10.2712V21.0012C21.3688 26.3689 17.0329 30.7199 11.6846 30.7199C9.68904 30.7199 7.83424 30.1145 6.29346 29.0761C8.05201 30.8806 10.5044 32 13.2176 32C18.5662 32 22.9023 27.6489 22.9023 22.2811V11.5513H22.9021ZM24.7937 6.24668C23.742 5.09366 23.0515 3.60359 22.9021 1.95625V1.27997H21.449C21.8148 3.37373 23.0623 5.16251 24.7937 6.24668ZM9.67624 24.9571C9.08867 24.1839 8.77115 23.2382 8.77258 22.2657C8.77258 19.8107 10.7558 17.8202 13.2025 17.8202C13.6585 17.8201 14.1118 17.8901 14.5463 18.0285V12.653C14.0385 12.5832 13.526 12.5535 13.0136 12.5644V16.7484C12.5788 16.6101 12.1253 16.5398 11.6692 16.5402C9.22244 16.5402 7.23934 18.5305 7.23934 20.9858C7.23934 22.7219 8.23062 24.2249 9.67624 24.9571Z" fill="#FF004F"/>
<path d="M21.3686 10.2711C23.427 11.7472 25.9475 12.6158 28.67 12.6158V8.47706C27.1503 8.1522 25.805 7.35522 24.7935 6.24668C23.0621 5.1624 21.8147 3.37362 21.4489 1.27997H17.6321V22.2808C17.6235 24.7291 15.6437 26.7115 13.2022 26.7115C11.7634 26.7115 10.4853 26.0232 9.67577 24.9571C8.23025 24.2249 7.23897 22.7218 7.23897 20.9859C7.23897 18.5308 9.22207 16.5403 11.6688 16.5403C12.1376 16.5403 12.5894 16.6136 13.0133 16.7485V12.5645C7.75895 12.6735 3.5332 16.982 3.5332 22.2809C3.5332 24.9261 4.58551 27.3241 6.29342 29.0762C7.8342 30.1145 9.689 30.72 11.6846 30.72C17.0329 30.72 21.3687 26.3687 21.3687 21.0012V10.2711H21.3686Z" fill="black"/>
<path d="M28.6701 8.47707V7.35798C27.2997 7.36007 25.9562 6.97492 24.7935 6.24658C25.8228 7.37742 27.1781 8.15716 28.6701 8.47707ZM21.4489 1.27998C21.414 1.07988 21.3872 0.878468 21.3686 0.676285V0H16.0987V21.0011C16.0903 23.449 14.1106 25.4314 11.6688 25.4314C10.952 25.4314 10.2752 25.2606 9.6758 24.9572C10.4853 26.0233 11.7635 26.7114 13.2022 26.7114C15.6435 26.7114 17.6236 24.7292 17.6321 22.281V1.27998H21.4489ZM13.0135 12.5645V11.3732C12.5732 11.3128 12.1292 11.2825 11.6847 11.2827C6.33589 11.2826 2 15.6339 2 21.0011C2 24.366 3.70408 27.3316 6.29356 29.076C4.58565 27.324 3.53334 24.9259 3.53334 22.2808C3.53334 16.982 7.75898 12.6735 13.0135 12.5645Z" fill="#00F2EA"/>
</g>
</svg>
