<svg width="33" height="32" viewBox="0 0 33 32" fill="none" xmlns="http://www.w3.org/2000/svg">
<g style="mix-blend-mode:multiply">
<path d="M16.8555 2C9.13359 2 2.85547 8.27812 2.85547 16C2.85547 23.7219 9.13359 30 16.8555 30C24.5773 30 30.8555 23.7219 30.8555 16C30.8555 8.27812 24.5773 2 16.8555 2Z" fill="#00AF87"/>
<path d="M10.8555 17C10.8555 16.4091 11.31 16 11.8555 16C12.4009 16 12.8555 16.4091 12.8555 17C12.8555 17.5909 12.4464 18 11.8555 18C11.2646 18 10.8555 17.5455 10.8555 17Z" fill="white"/>
<path fill-rule="evenodd" clip-rule="evenodd" d="M11.8555 14C10.2191 14 8.85547 15.2273 8.85547 17C8.85547 18.6364 10.0827 20 11.8555 20C13.6282 20 14.8555 18.7727 14.8555 17C14.8555 15.2273 13.4918 14 11.8555 14ZM11.8555 15C10.7646 15 9.85547 15.8182 9.85547 17C9.85547 18.0909 10.6737 19 11.8555 19C13.0373 19 13.8555 18.1818 13.8555 17C13.8555 15.8182 12.9464 15 11.8555 15Z" fill="white"/>
<path d="M22.8555 17C22.8555 16.4091 22.4009 16 21.8555 16C21.31 16 20.8555 16.4091 20.8555 17C20.8555 17.5909 21.2646 18 21.8555 18C22.4464 18 22.8555 17.5455 22.8555 17Z" fill="white"/>
<path fill-rule="evenodd" clip-rule="evenodd" d="M21.8555 14C23.4918 14 24.8555 15.2273 24.8555 17C24.8555 18.6364 23.6282 20 21.8555 20C20.0827 20 18.8555 18.7727 18.8555 17C18.8555 15.2273 20.2191 14 21.8555 14ZM21.8555 15C22.9464 15 23.8555 15.8182 23.8555 17C23.8555 18.0909 23.0373 19 21.8555 19C20.6737 19 19.8555 18.1818 19.8555 17C19.8555 15.8182 20.7646 15 21.8555 15Z" fill="white"/>
<path fill-rule="evenodd" clip-rule="evenodd" d="M9.85547 11.9838C11.7066 10.8127 14.2866 10 16.8555 10C19.4244 10 22.0044 10.8127 23.8555 11.9838L26.8555 12L25.7899 13.986C26.3944 14.7794 26.8555 15.9044 26.8555 17C26.8555 19.7578 24.5055 22 21.8233 22C20.2366 22 18.7999 21.0956 17.8555 20L16.8555 22L15.8555 20C14.911 21.0956 13.4743 22 11.8877 22C9.20545 22 6.85547 19.7578 6.85547 17C6.85547 15.9044 7.31656 14.7794 7.921 13.986L6.85547 12L9.85547 11.9838ZM16.8555 16.5C17.0444 13.9689 19.2544 12.0378 21.8233 12C20.4255 11.3956 18.631 11 16.8555 11C15.0799 11 13.2854 11.3956 11.8877 12C14.4566 12.0378 16.6666 13.9689 16.8555 16.5ZM11.8877 21.0178C9.69656 21.0178 7.85547 19.1911 7.85547 17C7.85547 14.8089 9.69656 12.966 11.8877 12.966C14.0788 12.966 15.8543 14.8089 15.8543 17C15.8543 19.1533 14.0788 21.0178 11.8877 21.0178ZM21.8233 21.0178C24.0144 21.0178 25.8555 19.1911 25.8555 17C25.8555 14.8089 24.0144 12.966 21.8233 12.966C19.6322 12.966 17.8566 14.8089 17.8566 17C17.8566 19.1533 19.6322 21.0178 21.8233 21.0178Z" fill="white"/>
</g>
</svg>
