<svg width="32" height="26" viewBox="0 0 32 26" fill="none" xmlns="http://www.w3.org/2000/svg">
<path d="M10.0634 26.0009C22.1389 26.0009 28.7437 15.9965 28.7437 7.32061C28.7437 7.03645 28.7437 6.75357 28.7245 6.47197C30.0094 5.54258 31.1185 4.39182 32 3.07357C30.8019 3.60477 29.5307 3.95298 28.2291 4.10653C29.5998 3.28612 30.6255 1.99558 31.1155 0.475172C29.8268 1.23998 28.4168 1.77894 26.9466 2.06877C25.9567 1.01621 24.6475 0.319227 23.2216 0.0856846C21.7957 -0.147858 20.3326 0.0950582 19.0586 0.776843C17.7847 1.45863 16.771 2.54127 16.1743 3.85724C15.5777 5.1732 15.4314 6.64912 15.7581 8.05661C13.1479 7.92568 10.5943 7.24732 8.26327 6.06558C5.9322 4.88384 3.87569 3.22512 2.2272 1.19709C1.38764 2.64242 1.1305 4.3534 1.50813 5.98165C1.88577 7.60991 2.86979 9.03303 4.25984 9.96125C3.21498 9.93064 2.19286 9.64876 1.28 9.13949V9.22269C1.28041 10.7385 1.80513 12.2075 2.76516 13.3805C3.72519 14.5535 5.06141 15.3584 6.5472 15.6585C5.58064 15.9222 4.5665 15.9607 3.58272 15.7712C4.00242 17.0756 4.81924 18.2163 5.91899 19.0338C7.01873 19.8512 8.34644 20.3046 9.71648 20.3305C8.35525 21.4005 6.79642 22.1916 5.12917 22.6585C3.46191 23.1255 1.71895 23.2591 0 23.0518C3.00244 24.9785 6.4959 26.0005 10.0634 25.9958" fill="#1DA1F2"/>
</svg>
