<svg width="111" height="95" viewBox="0 0 111 95" fill="none" xmlns="http://www.w3.org/2000/svg">
<path opacity="0.18" d="M5.59876 28.1331C-5.10934 52.025 4.22973 66.0537 5.1257 69.6913C6.48166 75.2132 15.0991 99.9554 47.3608 93.4053C54.0294 92.0508 64.0312 87.6918 70.8523 87.2657C76.614 86.9041 82.2798 88.503 88.0197 89.0777C93.7596 89.6524 100.265 88.9037 103.999 84.9553C107.28 81.4838 107.539 76.4642 106.803 71.9607C106.066 67.4571 104.5 63.0142 104.729 58.4735C104.947 54.3374 106.624 50.3948 107.86 46.4053C109.704 40.4534 110.565 34.1144 109.011 28.0979C107.457 22.0814 103.219 16.4188 96.962 13.8288C84.8391 8.81315 69.7972 16.3797 57.4607 11.7745C50.7027 9.25295 15.6616 5.67591 5.59876 28.1331Z" fill="#107569"/>
<path d="M51.533 53.4382C51.5396 53.2785 51.4892 53.121 51.3892 52.9886C51.3365 52.9248 51.2608 52.8793 51.1749 52.8601C51.0889 52.8408 50.9982 52.8489 50.9183 52.8831C50.8333 52.9281 50.7766 53.0121 50.6872 53.0532C50.5978 53.0942 50.4496 53.0375 50.4801 52.9515C50.0724 53.0082 49.7869 53.3268 49.4381 53.5223C49.1612 53.6747 48.8386 53.7529 48.5661 53.9015C48.2936 54.05 48.0385 54.3139 48.0734 54.6032C48.0988 54.6939 48.1106 54.7873 48.1083 54.8808C48.0881 54.9451 48.0603 55.0074 48.0254 55.0665C47.9896 55.1739 47.9782 55.2868 47.9921 55.3983C48.0059 55.5098 48.0447 55.6177 48.1061 55.7154C48.2151 55.9109 48.3655 56.1063 48.4549 56.3018C48.5181 56.5152 48.5982 56.7242 48.6947 56.9273C48.8168 57.1228 49.0849 57.2674 49.3073 57.1716C49.122 56.9175 49.2375 56.5852 49.3705 56.2979C49.5885 55.8483 49.8392 55.3831 50.3035 55.1251C50.4914 55.0468 50.6626 54.9396 50.8093 54.8084C50.9015 54.6878 50.9859 54.5625 51.0622 54.4331C51.3041 54.1048 51.5418 53.8761 51.533 53.4382Z" fill="#3F3D56"/>
<path d="M47.3542 56.4545C47.2965 56.3771 47.2225 56.3107 47.1362 56.259C46.8681 56.1202 46.5389 56.302 46.3034 56.4818C45.9805 56.7307 45.6733 56.9956 45.3835 57.2754C45.2779 57.3639 45.2017 57.4769 45.1633 57.6018C45.1483 57.7221 45.1701 57.8437 45.2265 57.9537C45.5472 58.7247 46.076 59.4124 46.7656 59.9553C46.8685 60.0504 47.0018 60.1146 47.1471 60.139C47.2893 60.1391 47.4286 60.1024 47.5482 60.0335L49.2551 59.2516C49.5647 59.1089 49.9331 58.8939 49.798 58.5284C49.7086 58.2918 49.4274 58.2117 49.2159 58.0768C48.5119 57.6188 47.8849 57.0724 47.3542 56.4545Z" fill="#107569"/>
<path d="M47.3543 56.4721C47.2967 56.3946 47.2227 56.3282 47.1363 56.2766C46.8681 56.1378 46.539 56.3177 46.3035 56.4975C45.9799 56.7457 45.672 57.01 45.3814 57.2891C45.2719 57.3785 45.1926 57.4937 45.1525 57.6214C45.1376 57.7423 45.1594 57.8646 45.2157 57.9752C45.537 58.7454 46.0657 59.4323 46.7548 59.9749C46.8576 60.0705 46.9908 60.1353 47.1363 60.1605C47.2786 60.1589 47.4175 60.1217 47.5374 60.053L49.2443 59.2712C49.5539 59.1285 49.9223 58.9135 49.7871 58.5479C49.6978 58.3134 49.4166 58.2332 49.2051 58.0964C48.5043 57.6376 47.8809 57.0905 47.3543 56.4721Z" fill="url(#paint0_linear_71_4874)"/>
<path d="M51.4003 60.1642C51.6074 60.9363 51.5442 61.7417 51.4788 62.5333C51.2848 64.9376 51.0842 67.3692 50.2449 69.6581C50.0269 70.266 49.7261 70.8934 49.1549 71.2648C48.211 71.8688 46.7918 71.5365 46.0441 70.7429C45.2964 69.9493 45.1132 68.8352 45.2113 67.7992C45.3094 66.7632 45.6473 65.7605 45.8501 64.7362C46.1749 63.0122 45.8501 60.303 47.1733 58.8722C48.586 57.3319 50.9643 58.5223 51.4003 60.1642Z" fill="#107569"/>
<path d="M51.4003 60.1642C51.6074 60.9363 51.5442 61.7417 51.4788 62.5333C51.2848 64.9376 51.0842 67.3692 50.2449 69.6581C50.0269 70.266 49.7261 70.8934 49.1549 71.2648C48.211 71.8688 46.7918 71.5365 46.0441 70.7429C45.2964 69.9493 45.1132 68.8352 45.2113 67.7992C45.3094 66.7632 45.6473 65.7605 45.8501 64.7362C46.1749 63.0122 45.8501 60.303 47.1733 58.8722C48.586 57.3319 50.9643 58.5223 51.4003 60.1642Z" fill="url(#paint1_linear_71_4874)"/>
<path d="M50.0795 70.057C50.0318 70.2833 49.9969 70.5117 49.9748 70.7411C49.6156 72.2069 49.0676 73.6303 48.342 74.9828C48.0041 75.6161 47.6226 76.2396 47.4177 76.9179C47.1321 77.8542 47.1997 78.8491 47.3371 79.8128C47.5267 81.14 47.9409 82.0391 48.257 83.3468C47.9998 83.5071 45.7696 84.7444 45.4557 84.7796C44.8235 84.4004 46.5457 83.2471 46.5261 83.0497C46.4345 82.0372 46.3081 81.785 45.9702 80.9132C45.6868 80.1607 45.399 79.4081 45.1636 78.6439C44.8992 77.8909 44.769 77.1052 44.7777 76.3158C44.8243 75.7731 44.9257 75.2354 45.0808 74.7091L45.7805 71.9882L42.9466 73.9429C42.8143 74.022 42.7021 74.1252 42.6174 74.2459C42.5328 74.4254 42.51 74.6235 42.552 74.8147C42.7396 76.4403 43.2005 78.0312 43.9188 79.5332L42.3296 80.964C42.0655 81.2382 41.7311 81.4508 41.3552 81.5837C41.0936 81.3569 41.2178 80.9562 41.4249 80.6884C41.632 80.4206 42.2708 80.0258 42.2969 79.7013C42.31 79.5586 41.704 78.7572 41.6647 78.6204C41.2069 76.9707 40.9344 76.1243 40.736 74.4335C40.6739 74.0308 40.6739 73.6224 40.736 73.2197C40.9213 72.299 41.6582 71.5562 42.3667 70.8741C43.4349 69.8322 44.248 68.9976 45.1571 68.0535C45.5931 68.5324 46.1555 69.3983 48.2308 69.8772C49.0549 70.059 49.5846 69.9554 50.0795 70.057Z" fill="#3F3D56"/>
<path d="M93.9622 32.0485C93.961 34.3411 92.9448 36.5395 91.1368 38.1606C89.3288 39.7818 86.8769 40.693 84.3201 40.694H64.3775C63.9398 40.6951 63.5026 40.667 63.0695 40.6099C62.5466 40.6666 62.0202 40.6947 61.4934 40.694H33.4065C31.6077 40.7144 29.8224 40.4144 28.154 39.8113C26.4856 39.2083 24.9673 38.3142 23.6873 37.1809C22.4073 36.0476 21.391 34.6977 20.6973 33.2095C20.0037 31.7213 19.6465 30.1245 19.6465 28.5115C19.6465 26.8986 20.0037 25.3017 20.6973 23.8135C21.391 22.3253 22.4073 20.9754 23.6873 19.8421C24.9673 18.7089 26.4856 17.8148 28.154 17.2117C29.8224 16.6086 31.6077 16.3086 33.4065 16.3291H38.9393C39.4707 12.5925 41.4651 9.14671 44.5667 6.6062C47.6684 4.0657 51.6757 2.59568 55.874 2.45833C60.0722 2.32098 64.1883 3.52523 67.4882 5.8563C70.7882 8.18738 73.0573 11.4937 73.891 15.1856H75.6088C76.7783 15.1853 77.9363 15.3916 79.0169 15.7926C80.0974 16.1937 81.0793 16.7816 81.9064 17.5229C82.7336 18.2642 83.3898 19.1443 83.8376 20.1129C84.2854 21.0816 84.516 22.1199 84.5163 23.1684C84.5163 23.2486 84.5163 23.3287 84.5163 23.405C87.0393 23.45 89.442 24.3806 91.2082 25.9967C92.9744 27.6129 93.9632 29.7858 93.9622 32.0485Z" fill="url(#paint2_linear_71_4874)"/>
<path d="M91.7932 30.1035C91.7921 32.3961 90.7758 34.5945 88.9678 36.2157C87.1598 37.8368 84.708 38.748 82.1511 38.749H62.2108C61.7731 38.75 61.3359 38.7219 60.9028 38.665C60.3805 38.7215 59.8549 38.7496 59.3288 38.749H31.2375C29.4388 38.7694 27.6534 38.4694 25.985 37.8664C24.3166 37.2633 22.7984 36.3692 21.5184 35.2359C20.2384 34.1026 19.222 32.7528 18.5284 31.2646C17.8347 29.7764 17.4775 28.1795 17.4775 26.5665C17.4775 24.9536 17.8347 23.3567 18.5284 21.8685C19.222 20.3803 20.2384 19.0304 21.5184 17.8971C22.7984 16.7639 24.3166 15.8698 25.985 15.2667C27.6534 14.6637 29.4388 14.3636 31.2375 14.3841H36.7703C37.2988 10.6456 39.292 7.19724 42.3939 4.65462C45.4958 2.11201 49.5046 0.640656 53.7046 0.503249C57.9046 0.365843 62.0223 1.57133 65.3226 3.90449C68.623 6.23765 70.8911 9.5466 71.7221 13.2406H73.4399C75.8013 13.2401 78.0663 14.0806 79.7367 15.5772C81.4071 17.0739 82.3462 19.1041 82.3473 21.2215C82.3473 21.3036 82.3473 21.3837 82.3473 21.46C84.8702 21.5055 87.2726 22.4362 89.0387 24.0523C90.8048 25.6684 91.7937 27.8409 91.7932 30.1035Z" fill="#107569"/>
<path d="M91.7934 30.1034C91.7923 32.396 90.7761 34.5944 88.9681 36.2155C87.1601 37.8367 84.7082 38.7479 82.1514 38.7489H62.211C61.7733 38.7499 61.3361 38.7218 60.903 38.6648C60.3808 38.7214 59.8551 38.7495 59.3291 38.7489H32.0509C29.4562 37.4107 27.4269 35.3418 26.2782 32.8634C25.1295 30.385 24.9256 27.6358 25.6983 25.0429C26.471 22.4499 28.1769 20.1583 30.5512 18.5239C32.9255 16.8895 35.8352 16.0038 38.8285 16.0044H44.3635C44.9088 12.1678 46.9957 8.6412 50.233 6.08534C53.4703 3.52948 57.636 2.11977 61.9494 2.12036H62.1674C64.6035 3.19426 66.7323 4.75504 68.3899 6.68257C70.0476 8.61009 71.1899 10.853 71.7288 13.2385H73.4467C75.8081 13.238 78.0731 14.0785 79.7435 15.5751C81.4139 17.0718 82.3529 19.1021 82.3541 21.2194C82.3541 21.3015 82.3541 21.3817 82.3541 21.4579C84.8762 21.505 87.2773 22.4366 89.042 24.0529C90.8068 25.6693 91.7946 27.8415 91.7934 30.1034Z" fill="url(#paint3_linear_71_4874)"/>
<path d="M14.6895 71.8121H13.6191V34.6344C13.6209 33.7076 14.0324 32.8192 14.7635 32.1641C15.4945 31.5089 16.4855 31.1404 17.5191 31.1394H24.2771V32.0991H17.5191C16.7675 32.0991 16.0467 32.3669 15.5152 32.8434C14.9837 33.32 14.6852 33.9663 14.6852 34.6402L14.6895 71.8121Z" fill="#107569"/>
<path d="M102.416 71.8121H101.348V34.6344C101.348 33.9604 101.05 33.3141 100.518 32.8376C99.9868 32.361 99.2659 32.0933 98.5143 32.0933H91.7563V31.1335H98.5143C99.5477 31.1346 100.538 31.5031 101.269 32.1583C102 32.8135 102.411 33.7019 102.412 34.6285L102.416 71.8121Z" fill="#107569"/>
<path d="M106.268 54.0933H96.1728C93.8358 54.0933 91.9414 55.7919 91.9414 57.8873V77.0958C91.9414 79.1912 93.8358 80.8898 96.1728 80.8898H106.268C108.605 80.8898 110.5 79.1912 110.5 77.0958V57.8873C110.5 55.7919 108.605 54.0933 106.268 54.0933Z" fill="#107569"/>
<path d="M109.229 57.8442V74.7755C109.229 75.0954 109.159 75.4121 109.022 75.7076C108.886 76.0031 108.686 76.2716 108.433 76.4977C108.181 76.7239 107.882 76.9033 107.552 77.0257C107.223 77.1481 106.869 77.2111 106.513 77.2111H95.8635C95.5066 77.2113 95.1531 77.1485 94.8233 77.0262C94.4935 76.904 94.1938 76.7246 93.9414 76.4984C93.6889 76.2722 93.4886 76.0037 93.352 75.708C93.2153 75.4124 93.145 75.0955 93.145 74.7755V57.8442C93.145 57.1976 93.4314 56.5774 93.9411 56.12C94.4508 55.6625 95.1423 55.4053 95.8635 55.4048H106.513C106.87 55.405 107.223 55.4683 107.553 55.5911C107.883 55.7138 108.182 55.8936 108.434 56.1201C108.687 56.3466 108.887 56.6155 109.023 56.9113C109.159 57.2071 109.229 57.5241 109.229 57.8442Z" fill="white"/>
<path d="M103.589 78.333H99.2924C98.7927 78.333 98.3877 78.6957 98.3877 79.1432C98.3877 79.5907 98.7927 79.9534 99.2924 79.9534H103.589C104.089 79.9534 104.494 79.5907 104.494 79.1432C104.494 78.6957 104.089 78.333 103.589 78.333Z" fill="white"/>
<path d="M37.7949 61.3333H7.14644C5.52709 61.3333 4.21436 62.5103 4.21436 63.9623V77.5042C4.21436 78.9562 5.52709 80.1333 7.14644 80.1333H37.7949C39.4142 80.1333 40.727 78.9562 40.727 77.5042V63.9623C40.727 62.5103 39.4142 61.3333 37.7949 61.3333Z" fill="#107569"/>
<path d="M36.897 62.2539H8.12985C6.64776 62.2539 5.44629 63.3312 5.44629 64.6601V76.7009C5.44629 78.0298 6.64776 79.1071 8.12985 79.1071H36.897C38.3791 79.1071 39.5805 78.0298 39.5805 76.7009V64.6601C39.5805 63.3312 38.3791 62.2539 36.897 62.2539Z" fill="white"/>
<path d="M40.7248 81.3687C40.7254 81.531 40.6901 81.6919 40.6211 81.842C40.5521 81.9921 40.4506 82.1285 40.3225 82.2433C40.1945 82.3581 40.0424 82.4491 39.875 82.511C39.7075 82.5729 39.5281 82.6045 39.347 82.604H5.59211C5.22671 82.604 4.87627 82.4739 4.61789 82.2422C4.35951 82.0105 4.21436 81.6963 4.21436 81.3687C4.21436 81.041 4.35951 80.7268 4.61789 80.4951C4.87627 80.2635 5.22671 80.1333 5.59211 80.1333H39.347C39.7121 80.1343 40.0619 80.2648 40.32 80.4963C40.5781 80.7277 40.7236 81.0413 40.7248 81.3687Z" fill="#107569"/>
<path d="M40.4655 80.6494C40.4237 80.7041 40.3763 80.7551 40.3238 80.8018C40.1958 80.9172 40.0436 81.0087 39.876 81.0711C39.7083 81.1335 39.5286 81.1656 39.3471 81.1654H5.59219C5.37309 81.1656 5.15709 81.1189 4.96219 81.0292C4.76729 80.9394 4.59912 80.8092 4.47168 80.6494C4.59795 80.4885 4.76588 80.3575 4.96105 80.2676C5.15622 80.1777 5.3728 80.1317 5.59219 80.1333H39.3471C39.566 80.133 39.7817 80.1796 39.9763 80.2694C40.1709 80.3592 40.3386 80.4895 40.4655 80.6494Z" fill="url(#paint4_linear_71_4874)"/>
<path d="M80.6339 67.7543H63.1592C62.8649 67.7543 62.418 67.5393 62.418 67.2754C62.418 67.0115 62.8649 66.7946 63.1592 66.7946H80.6339C81.6527 66.7941 82.6296 66.4311 83.3502 65.7854C84.0707 65.1396 84.4761 64.2639 84.4773 63.3504V49.1439C84.4767 48.4919 84.1876 47.8668 83.6734 47.4057C83.1592 46.9447 82.462 46.6855 81.7348 46.6849H69.4179C68.5221 46.6839 67.6633 46.3644 67.0299 45.7964C66.3965 45.2285 66.0401 44.4584 66.0389 43.6552V40.0469C66.0343 39.9813 66.0446 39.9155 66.0694 39.8537C66.0942 39.7918 66.1329 39.7352 66.183 39.6872C66.2332 39.6393 66.2938 39.6011 66.361 39.575C66.4283 39.5489 66.5008 39.5354 66.5741 39.5354C66.6474 39.5354 66.7199 39.5489 66.7872 39.575C66.8545 39.6011 66.9151 39.6393 66.9652 39.6872C67.0154 39.7352 67.054 39.7918 67.0788 39.8537C67.1036 39.9155 67.114 39.9813 67.1093 40.0469V43.6552C67.1099 44.204 67.3533 44.7303 67.7861 45.1183C68.2189 45.5064 68.8058 45.7247 69.4179 45.7252H81.7348C82.7457 45.7262 83.7148 46.0868 84.4296 46.7277C85.1444 47.3686 85.5465 48.2375 85.5476 49.1439V63.3504C85.5459 64.5183 85.0276 65.6378 84.1064 66.4634C83.1852 67.289 81.9364 67.7533 80.6339 67.7543Z" fill="#107569"/>
<path opacity="0.18" d="M106.582 61.1533H96.2208C95.8211 61.1533 95.4971 61.4434 95.4971 61.8013C95.4971 62.1592 95.8211 62.4493 96.2208 62.4493H106.582C106.982 62.4493 107.306 62.1592 107.306 61.8013C107.306 61.4434 106.982 61.1533 106.582 61.1533Z" fill="#107569"/>
<path opacity="0.18" d="M106.582 63.7102H96.2208C95.8211 63.7102 95.4971 64.0003 95.4971 64.3582C95.4971 64.716 95.8211 65.0062 96.2208 65.0062H106.582C106.982 65.0062 107.306 64.716 107.306 64.3582C107.306 64.0003 106.982 63.7102 106.582 63.7102Z" fill="#107569"/>
<path opacity="0.18" d="M106.582 66.2668H96.2208C95.8211 66.2668 95.4971 66.557 95.4971 66.9148C95.4971 67.2727 95.8211 67.5628 96.2208 67.5628H106.582C106.982 67.5628 107.306 67.2727 107.306 66.9148C107.306 66.557 106.982 66.2668 106.582 66.2668Z" fill="#107569"/>
<path opacity="0.18" d="M106.582 68.8235H96.2208C95.8211 68.8235 95.4971 69.1136 95.4971 69.4715C95.4971 69.8293 95.8211 70.1194 96.2208 70.1194H106.582C106.982 70.1194 107.306 69.8293 107.306 69.4715C107.306 69.1136 106.982 68.8235 106.582 68.8235Z" fill="#107569"/>
<path opacity="0.18" d="M20.7215 66.177H10.36C9.96027 66.177 9.63623 66.4671 9.63623 66.825C9.63623 67.1828 9.96027 67.4729 10.36 67.4729H20.7215C21.1212 67.4729 21.4452 67.1828 21.4452 66.825C21.4452 66.4671 21.1212 66.177 20.7215 66.177Z" fill="#107569"/>
<path opacity="0.18" d="M20.7215 68.7336H10.36C9.96027 68.7336 9.63623 69.0238 9.63623 69.3816C9.63623 69.7395 9.96027 70.0296 10.36 70.0296H20.7215C21.1212 70.0296 21.4452 69.7395 21.4452 69.3816C21.4452 69.0238 21.1212 68.7336 20.7215 68.7336Z" fill="#107569"/>
<path opacity="0.18" d="M20.7215 71.2922H10.36C9.96027 71.2922 9.63623 71.5823 9.63623 71.9402C9.63623 72.2981 9.96027 72.5882 10.36 72.5882H20.7215C21.1212 72.5882 21.4452 72.2981 21.4452 71.9402C21.4452 71.5823 21.1212 71.2922 20.7215 71.2922Z" fill="#107569"/>
<path opacity="0.18" d="M20.7215 73.8489H10.36C9.96027 73.8489 9.63623 74.139 9.63623 74.4969C9.63623 74.8547 9.96027 75.1448 10.36 75.1448H20.7215C21.1212 75.1448 21.4452 74.8547 21.4452 74.4969C21.4452 74.139 21.1212 73.8489 20.7215 73.8489Z" fill="#107569"/>
<path opacity="0.18" d="M38.532 62.7543L5.44629 73.3271V64.6621C5.44629 64.0234 5.72925 63.4109 6.23293 62.9592C6.7366 62.5076 7.41973 62.2539 8.13203 62.2539H36.8948C37.4874 62.2526 38.0636 62.4287 38.532 62.7543Z" fill="#107569"/>
<path opacity="0.18" d="M39.5804 71.8826V76.6989C39.5802 77.0149 39.5105 77.3277 39.3753 77.6195C39.2402 77.9114 39.0423 78.1765 38.7929 78.3997C38.5435 78.623 38.2475 78.8 37.9218 78.9207C37.5961 79.0414 37.2471 79.1034 36.8947 79.1031H19.481L39.5804 71.8826Z" fill="#107569"/>
<path d="M77.3729 54.3101H58.7514C57.4379 54.3101 56.373 55.2648 56.373 56.4426V77.0292C56.373 78.2069 57.4379 79.1617 58.7514 79.1617H77.3729C78.6864 79.1617 79.7512 78.2069 79.7512 77.0292V56.4426C79.7512 55.2648 78.6864 54.3101 77.3729 54.3101Z" fill="#107569"/>
<path d="M78.6545 57.158V75.7801C78.6548 76.0333 78.5994 76.284 78.4914 76.518C78.3835 76.7519 78.2252 76.9645 78.0255 77.1435C77.8259 77.3225 77.5888 77.4645 77.3279 77.5613C77.067 77.658 76.7874 77.7077 76.505 77.7074H59.6668C59.3843 77.7077 59.1046 77.658 58.8435 77.5613C58.5825 77.4646 58.3453 77.3226 58.1455 77.1436C57.9456 76.9647 57.7871 76.7521 57.679 76.5181C57.5708 76.2842 57.5151 76.0334 57.5151 75.7801V57.158C57.5157 56.6467 57.7427 56.1565 58.1461 55.7951C58.5496 55.4337 59.0965 55.2307 59.6668 55.2307H76.505C76.7873 55.2307 77.0668 55.2806 77.3276 55.3774C77.5884 55.4743 77.8253 55.6162 78.0249 55.7952C78.2245 55.9742 78.3828 56.1866 78.4909 56.4205C78.5989 56.6543 78.6545 56.9049 78.6545 57.158Z" fill="white"/>
<path opacity="0.18" d="M60.3887 64.0345L63.4428 62.8089L67.1379 65.6178L70.9137 61.1533L74.6894 65.9071V69.1929H60.5369L60.3887 64.0345Z" fill="#107569"/>
<path d="M69.1476 78.0632H67.4297C67.2299 78.0632 67.0679 78.2081 67.0679 78.3867C67.0679 78.5654 67.2299 78.7102 67.4297 78.7102H69.1476C69.3474 78.7102 69.5095 78.5654 69.5095 78.3867C69.5095 78.2081 69.3474 78.0632 69.1476 78.0632Z" fill="url(#paint5_linear_71_4874)"/>
<path d="M75.8535 69.3161H60.3232V60.0725H60.5369V69.1246H75.8535V69.3161Z" fill="#107569"/>
<path d="M63.966 62.3594H62.73V69.1929H63.966V62.3594Z" fill="#107569"/>
<path d="M71.6765 60.6824H70.4404V69.195H71.6765V60.6824Z" fill="#107569"/>
<path d="M67.7614 65.0432H66.5254V69.193H67.7614V65.0432Z" fill="#107569"/>
<path d="M75.1516 65.0432H73.9155V69.193H75.1516V65.0432Z" fill="#107569"/>
<path opacity="0.18" d="M78.6547 57.158V58.8527L57.5088 69.191V57.158C57.5094 56.6467 57.7363 56.1565 58.1398 55.7951C58.5432 55.4337 59.0902 55.2307 59.6604 55.2307H76.4987C76.7815 55.23 77.0617 55.2792 77.3232 55.3757C77.5848 55.4723 77.8225 55.6141 78.0228 55.7931C78.2231 55.9722 78.382 56.1849 78.4904 56.4191C78.5989 56.6533 78.6547 56.9044 78.6547 57.158Z" fill="#107569"/>
<path opacity="0.18" d="M109.229 64.7637V74.7755C109.229 75.0953 109.159 75.412 109.022 75.7075C108.886 76.003 108.686 76.2715 108.433 76.4977C108.181 76.7238 107.882 76.9032 107.552 77.0256C107.223 77.148 106.869 77.211 106.513 77.211H95.8635C95.5066 77.2113 95.1531 77.1485 94.8233 77.0262C94.4935 76.9039 94.1938 76.7246 93.9414 76.4984C93.6889 76.2722 93.4886 76.0036 93.352 75.708C93.2153 75.4124 93.145 75.0955 93.145 74.7755V72.6527L109.222 63.8079L109.229 64.7637Z" fill="#107569"/>
<path d="M47.3606 93.4055L46.5039 93.5638V38.71H47.3606V93.4055Z" fill="#107569"/>
<path d="M47.3606 93.4055L46.5039 93.5638V38.71H47.3606V93.4055Z" fill="url(#paint6_linear_71_4874)"/>
<path d="M46.6894 60.5827C46.6377 60.5262 46.5738 60.4797 46.5015 60.4461C46.4291 60.4125 46.3499 60.3924 46.2686 60.3872C46.0201 60.4028 45.8959 60.6648 45.861 60.8876C45.8185 61.1344 45.8185 61.3856 45.861 61.6323C45.9896 62.338 46.4474 62.9556 46.8965 63.5499C47.467 64.3393 48.094 65.0947 48.7734 65.8114C49.067 66.1348 49.4313 66.4008 49.8438 66.5933C50.0515 66.6884 50.2821 66.7361 50.5153 66.732C50.7484 66.7279 50.9768 66.6722 51.1802 66.5698C51.6685 66.2884 51.8167 65.7195 51.9257 65.2016L52.2527 63.628C52.3007 63.4919 52.3007 63.3459 52.2527 63.2097C52.189 63.1068 52.0957 63.021 51.9824 62.9615C51.8471 62.8631 51.6869 62.796 51.5159 62.766C51.0472 62.7211 50.7071 63.157 50.5872 63.5694C50.4673 63.9818 50.4281 64.4373 50.0989 64.7422L48.2154 62.7856C48.0087 62.6116 47.8736 62.3802 47.8317 62.1288C47.8524 61.9458 47.8903 61.7647 47.9451 61.5874C47.9734 61.4056 47.8993 61.1808 47.7009 61.1358C47.6612 61.2296 47.596 61.3129 47.5112 61.3782C47.2169 61.1573 46.9793 60.829 46.6894 60.5827Z" fill="url(#paint7_linear_71_4874)"/>
<path d="M50.3951 60.8778L50.188 63.3603C50.1597 63.4525 50.1719 63.551 50.2222 63.6354C50.2725 63.7198 50.3571 63.7836 50.4583 63.8137L52.2961 64.7481C52.7691 64.062 52.8084 63.2117 52.7975 62.4025C52.8059 61.8119 52.7445 61.2222 52.6143 60.6433C52.5505 60.368 52.4372 60.1039 52.2786 59.8614C52.1096 59.6167 51.8779 59.4116 51.6028 59.2633C51.4132 59.1616 50.2948 58.4814 50.103 58.6261C49.885 58.802 50.5804 59.6777 50.5216 59.9279C50.4562 60.2417 50.414 60.559 50.3951 60.8778Z" fill="#107569"/>
<path d="M50.3951 60.8778L50.188 63.3603C50.1597 63.4525 50.1719 63.551 50.2222 63.6354C50.2725 63.7198 50.3571 63.7836 50.4583 63.8137L52.2961 64.7481C52.7691 64.062 52.8084 63.2117 52.7975 62.4025C52.8059 61.8119 52.7445 61.2222 52.6143 60.6433C52.5505 60.368 52.4372 60.1039 52.2786 59.8614C52.1096 59.6167 51.8779 59.4116 51.6028 59.2633C51.4132 59.1616 50.2948 58.4814 50.103 58.6261C49.885 58.802 50.5804 59.6777 50.5216 59.9279C50.4562 60.2417 50.414 60.559 50.3951 60.8778Z" fill="url(#paint8_linear_71_4874)"/>
<path d="M47.5613 52.2518C47.5534 52.6587 47.385 53.05 47.086 53.3562C46.9053 53.4912 46.7363 53.6382 46.5803 53.796C46.3187 54.1146 46.347 54.5466 46.3841 54.9414C46.432 55.4516 46.4822 55.9618 46.5301 56.4739C46.2221 56.6286 45.9303 56.8078 45.6581 57.0095C45.4681 56.6863 45.3027 56.3519 45.1633 56.0087C45.031 55.7671 44.9413 55.5086 44.8973 55.2424C44.885 55.0752 44.8945 54.9073 44.9257 54.742C45.0996 53.7226 45.583 52.7657 46.323 51.9762C46.2998 51.9505 46.2854 51.9192 46.2816 51.8863C46.247 51.6471 46.2595 51.4042 46.3187 51.1689C46.3202 51.1457 46.3285 51.1232 46.3426 51.1037C46.3568 51.0842 46.3763 51.0682 46.3993 51.0575C46.456 51.0399 46.5127 51.0868 46.5432 51.1337C46.6341 51.2771 46.6892 51.4365 46.7045 51.6009C46.9262 51.403 47.1645 51.2207 47.4174 51.0555C47.5162 51.448 47.5645 51.8494 47.5613 52.2518Z" fill="url(#paint9_linear_71_4874)"/>
<path d="M49.1243 58.886C49.1921 58.96 49.2853 59.0119 49.3894 59.0334C49.4935 59.055 49.6026 59.0451 49.6998 59.0052C49.9153 58.9255 50.1143 58.8138 50.2884 58.6748C50.3308 58.6497 50.3672 58.6171 50.3952 58.5791C50.416 58.5379 50.4272 58.4933 50.4279 58.4481C50.4497 58.194 50.465 57.9379 50.4715 57.6819C50.478 57.4258 50.4606 57.072 50.2186 56.8863C50.1892 56.8597 50.1523 56.8408 50.1118 56.8316C50.0642 56.8267 50.0159 56.8307 49.9701 56.8433C49.7821 56.8761 49.6034 56.9426 49.4447 57.0388C49.1482 57.2343 49.0785 57.6252 49.0654 57.9321C49.0545 58.1881 48.9717 58.6553 49.1243 58.886Z" fill="url(#paint10_linear_71_4874)"/>
<path d="M51.4307 55.2563C51.4307 55.2563 51.4918 56.7692 51.2302 57.2539C50.9686 57.7387 49.8633 57.7406 49.4426 57.3438C49.0219 56.947 48.5706 55.8329 48.7995 54.8771C49.0284 53.9212 51.0492 53.2293 51.4307 55.2563Z" fill="url(#paint11_linear_71_4874)"/>
<path d="M50.0337 54.2084C49.893 54.2838 49.7703 54.3834 49.6727 54.5015C49.575 54.6196 49.5043 54.7538 49.4647 54.8964C49.3855 55.182 49.3495 55.4759 49.3579 55.7702L49.347 56.2158C49.2386 56.0807 49.0918 55.9741 48.9219 55.907C48.8455 56.1227 48.8674 56.3567 48.9829 56.5579C49.0277 56.6181 49.0622 56.684 49.0854 56.7534C49.098 56.7894 49.097 56.8281 49.0824 56.8635C49.0678 56.8989 49.0404 56.9289 49.0047 56.9488C48.8848 56.9997 48.7693 56.8726 48.7104 56.7651C48.4772 56.337 48.2352 55.8718 48.3311 55.3968C48.3723 55.2248 48.439 55.0585 48.5295 54.9023C48.7213 54.4814 49.0389 54.1162 49.4473 53.8468C49.6123 53.7485 49.8001 53.6851 49.9965 53.6614C50.1929 53.6377 50.3927 53.6543 50.5809 53.7099C51.2283 53.9308 50.2408 54.1087 50.0337 54.2084Z" fill="#3F3D56"/>
<defs>
<linearGradient id="paint0_linear_71_4874" x1="48.6536" y1="59.7774" x2="43.5137" y2="52.2115" gradientUnits="userSpaceOnUse">
<stop stop-opacity="0"/>
<stop offset="0.99"/>
</linearGradient>
<linearGradient id="paint1_linear_71_4874" x1="46.4169" y1="64.6834" x2="59.8177" y2="66.2258" gradientUnits="userSpaceOnUse">
<stop stop-opacity="0"/>
<stop offset="0.99"/>
</linearGradient>
<linearGradient id="paint2_linear_71_4874" x1="19.8186" y1="21.5695" x2="93.9622" y2="21.5695" gradientUnits="userSpaceOnUse">
<stop stop-opacity="0"/>
<stop offset="0.99"/>
</linearGradient>
<linearGradient id="paint3_linear_71_4874" x1="56.1921" y1="-8.687" x2="60.6517" y2="81.6956" gradientUnits="userSpaceOnUse">
<stop stop-opacity="0"/>
<stop offset="0.99"/>
</linearGradient>
<linearGradient id="paint4_linear_71_4874" x1="22.4697" y1="79.2322" x2="22.4697" y2="86.4352" gradientUnits="userSpaceOnUse">
<stop stop-opacity="0"/>
<stop offset="0.41" stop-opacity="0.41"/>
<stop offset="0.99"/>
</linearGradient>
<linearGradient id="paint5_linear_71_4874" x1="68.2189" y1="77.2481" x2="68.4136" y2="81.2497" gradientUnits="userSpaceOnUse">
<stop stop-opacity="0"/>
<stop offset="0.41" stop-opacity="0.41"/>
<stop offset="0.99"/>
</linearGradient>
<linearGradient id="paint6_linear_71_4874" x1="46.1595" y1="46.3918" x2="45.9211" y2="38.8098" gradientUnits="userSpaceOnUse">
<stop stop-opacity="0"/>
<stop offset="0.99"/>
</linearGradient>
<linearGradient id="paint7_linear_71_4874" x1="45.8326" y1="63.5635" x2="52.2854" y2="63.5635" gradientUnits="userSpaceOnUse">
<stop stop-color="#ECC4D7"/>
<stop offset="0.42" stop-color="#EFD4D1"/>
<stop offset="1" stop-color="#F2EAC9"/>
</linearGradient>
<linearGradient id="paint8_linear_71_4874" x1="51.8165" y1="64.9299" x2="49.1438" y2="41.9486" gradientUnits="userSpaceOnUse">
<stop stop-opacity="0"/>
<stop offset="0.99"/>
</linearGradient>
<linearGradient id="paint9_linear_71_4874" x1="44.8842" y1="54.0305" x2="47.5547" y2="54.0305" gradientUnits="userSpaceOnUse">
<stop stop-color="#ECC4D7"/>
<stop offset="0.42" stop-color="#EFD4D1"/>
<stop offset="1" stop-color="#F2EAC9"/>
</linearGradient>
<linearGradient id="paint10_linear_71_4874" x1="49.0327" y1="57.9301" x2="50.4737" y2="57.9301" gradientUnits="userSpaceOnUse">
<stop stop-color="#ECC4D7"/>
<stop offset="0.42" stop-color="#EFD4D1"/>
<stop offset="1" stop-color="#F2EAC9"/>
</linearGradient>
<linearGradient id="paint11_linear_71_4874" x1="48.7406" y1="55.7957" x2="51.4373" y2="55.7957" gradientUnits="userSpaceOnUse">
<stop stop-color="#ECC4D7"/>
<stop offset="0.42" stop-color="#EFD4D1"/>
<stop offset="1" stop-color="#F2EAC9"/>
</linearGradient>
</defs>
</svg>
