<svg width="32" height="33" viewBox="0 0 32 33" fill="none" xmlns="http://www.w3.org/2000/svg">
<g clip-path="url(#clip0_2968_2190)">
<rect y="0.5" width="32" height="32" rx="8" fill="#F0FDF9"/>
<path fill-rule="evenodd" clip-rule="evenodd" d="M15.9998 2.53885C8.28923 2.53885 2.03861 8.78948 2.03861 16.5C2.03861 24.2106 8.28923 30.4612 15.9998 30.4612C23.7103 30.4612 29.9609 24.2106 29.9609 16.5C29.9609 8.78948 23.7103 2.53885 15.9998 2.53885ZM1.96094 16.5C1.96094 8.74658 8.24634 2.46118 15.9998 2.46118C23.7532 2.46118 30.0386 8.74658 30.0386 16.5C30.0386 24.2535 23.7532 30.5389 15.9998 30.5389C8.24634 30.5389 1.96094 24.2535 1.96094 16.5Z" fill="#EFF8FF"/>
<path fill-rule="evenodd" clip-rule="evenodd" d="M16 12.5779C13.8338 12.5779 12.0777 14.334 12.0777 16.5002C12.0777 18.6665 13.8338 20.4226 16 20.4226C18.1662 20.4226 19.9223 18.6665 19.9223 16.5002C19.9223 14.334 18.1662 12.5779 16 12.5779ZM12 16.5002C12 14.2911 13.7909 12.5002 16 12.5002C18.2091 12.5002 20 14.2911 20 16.5002C20 18.7094 18.2091 20.5002 16 20.5002C13.7909 20.5002 12 18.7094 12 16.5002Z" fill="#EFF8FF"/>
<path fill-rule="evenodd" clip-rule="evenodd" d="M16 13.8201C14.52 13.8201 13.3203 15.0198 13.3203 16.4997C13.3203 17.9796 14.52 19.1793 16 19.1793C17.4799 19.1793 18.6796 17.9796 18.6796 16.4997C18.6796 15.0198 17.4799 13.8201 16 13.8201ZM13.2427 16.4997C13.2427 14.9769 14.4772 13.7424 16 13.7424C17.5228 13.7424 18.7572 14.9769 18.7572 16.4997C18.7572 18.0225 17.5228 19.257 16 19.257C14.4772 19.257 13.2427 18.0225 13.2427 16.4997Z" fill="#EFF8FF"/>
<path d="M15.9609 0.5H16.0386V32.5H15.9609V0.5Z" fill="#EFF8FF"/>
<path d="M32 16.4609L32 16.5386L-3.39506e-09 16.5386L0 16.4609L32 16.4609Z" fill="#EFF8FF"/>
<path d="M26.6021 0.5H26.6797V32.5H26.6021V0.5Z" fill="#EFF8FF"/>
<path d="M10.6406 0.5H10.7183V32.5H10.6406V0.5Z" fill="#EFF8FF"/>
<path d="M21.2817 0.5H21.3594V32.5H21.2817V0.5Z" fill="#EFF8FF"/>
<path d="M5.32031 0.5H5.39798V32.5H5.32031V0.5Z" fill="#EFF8FF"/>
<path d="M32 27.1016L32 27.1792L-3.39506e-09 27.1792L0 27.1016L32 27.1016Z" fill="#EFF8FF"/>
<path d="M32 11.1406L32 11.2183L-3.39506e-09 11.2183L0 11.1406L32 11.1406Z" fill="#EFF8FF"/>
<path d="M32 21.7812L32 21.8589L-3.39506e-09 21.8589L0 21.7812L32 21.7812Z" fill="#EFF8FF"/>
<path d="M32 5.82031L32 5.89798L-3.39506e-09 5.89798L0 5.82031L32 5.82031Z" fill="#EFF8FF"/>
<path d="M16 5.5V25.5M23.0711 8.42893L8.92893 22.5711M26 15.5H6M23.0711 22.5711L8.92893 8.42893" stroke="#0E9384" stroke-width="2" stroke-linecap="round" stroke-linejoin="round"/>
</g>
<rect x="0.1" y="0.6" width="31.8" height="31.8" rx="7.9" stroke="#99F6E0" stroke-width="0.2"/>
<defs>
<clipPath id="clip0_2968_2190">
<rect y="0.5" width="32" height="32" rx="8" fill="white"/>
</clipPath>
</defs>
</svg>
