<svg width="18" height="14" viewBox="0 0 18 14" fill="none" xmlns="http://www.w3.org/2000/svg">
<path d="M1.5 3.66669L11.5 3.66669M11.5 3.66669C11.5 5.0474 12.6193 6.16669 14 6.16669C15.3807 6.16669 16.5 5.0474 16.5 3.66669C16.5 2.28598 15.3807 1.16669 14 1.16669C12.6193 1.16669 11.5 2.28598 11.5 3.66669ZM6.5 10.3334L16.5 10.3334M6.5 10.3334C6.5 11.7141 5.38071 12.8334 4 12.8334C2.61929 12.8334 1.5 11.7141 1.5 10.3334C1.5 8.95264 2.61929 7.83335 4 7.83335C5.38071 7.83335 6.5 8.95264 6.5 10.3334Z" stroke="#5D6B98" stroke-width="1.66667" stroke-linecap="round" stroke-linejoin="round"/>
</svg>
