<svg width="32" height="33" viewBox="0 0 32 33" fill="none" xmlns="http://www.w3.org/2000/svg">
<g style="mix-blend-mode:multiply">
<path d="M16 2.26709C8.27812 2.26709 2 8.54521 2 16.2671C2 23.989 8.27812 30.2671 16 30.2671C23.7219 30.2671 30 23.989 30 16.2671C30 8.54521 23.7219 2.26709 16 2.26709Z" fill="#333333"/>
<path fill-rule="evenodd" clip-rule="evenodd" d="M20.8099 18.3051C20.7688 18.2461 20.7274 18.1884 20.6862 18.1309C20.3513 17.6641 20.0322 17.2192 20.0322 16.3274V13.0027C20.0322 12.8871 20.0328 12.7723 20.0335 12.6584C20.0408 11.3837 20.0474 10.2205 19.1281 9.3306C18.3397 8.54446 17.0301 8.26709 16.0286 8.26709C14.0698 8.26709 11.8846 9.0247 11.4264 11.5352C11.3779 11.8018 11.5646 11.9414 11.734 11.9807L13.7285 12.2045C13.9153 12.1947 14.0502 12.0043 14.0863 11.8126C14.2574 10.9475 14.956 10.5319 15.741 10.5319C16.1643 10.5319 16.6451 10.6924 16.8956 11.0862C17.154 11.4787 17.1499 12.003 17.1462 12.4718C17.1458 12.5264 17.1454 12.5802 17.1454 12.633V12.9117C16.9603 12.9332 16.7664 12.9535 16.5667 12.9744C15.4789 13.0885 14.2185 13.2206 13.2746 13.6497C11.9859 14.2285 11.0809 15.4062 11.0809 17.1372C11.0809 19.3556 12.4275 20.4646 14.1613 20.4646C15.6244 20.4646 16.4251 20.1065 17.5539 18.9133C17.6103 18.998 17.6609 19.0761 17.7087 19.1497C17.9779 19.5648 18.1537 19.8358 18.7337 20.3362C18.8868 20.4209 19.0894 20.4177 19.2251 20.2902C19.6361 19.9112 20.3824 19.2388 20.8031 18.8732C20.9712 18.73 20.9414 18.4986 20.8099 18.3051ZM16.7604 17.3463C16.4337 17.9483 15.9133 18.3166 15.3351 18.3166C14.5467 18.3166 14.0838 17.6923 14.0838 16.7688C14.0838 14.9509 15.6572 14.6209 17.145 14.6209C17.145 14.7297 17.146 14.839 17.1469 14.9487C17.1542 15.7717 17.1617 16.611 16.7604 17.3463Z" fill="white"/>
<path d="M23.2699 21.933C21.2997 23.4565 18.4425 24.2671 15.9818 24.2671C12.5345 24.2671 9.42926 22.9316 7.07958 20.7083C6.89528 20.5335 7.05978 20.2948 7.28121 20.4305C9.81666 21.9768 12.9516 22.9076 16.1893 22.9076C18.3738 22.9076 20.7746 22.4329 22.9836 21.4503C23.3168 21.3026 23.5961 21.681 23.2699 21.933Z" fill="white"/>
<path d="M21.7891 20.8718C22.4234 20.7915 23.8379 20.6138 24.0897 20.9516C24.3419 21.2891 23.8123 22.677 23.5736 23.3025L23.5719 23.3071C23.5001 23.4957 23.6545 23.571 23.8172 23.4281C24.8745 22.5017 25.1477 20.5599 24.931 20.2785C24.7161 20.001 22.8677 19.7607 21.7398 20.591C21.5664 20.7198 21.5961 20.8953 21.7891 20.8718Z" fill="white"/>
</g>
</svg>
