<svg width="32" height="34" viewBox="0 0 32 34" fill="none" xmlns="http://www.w3.org/2000/svg">
<g style="mix-blend-mode:multiply" filter="url(#filter0_d_2942_8463)">
<path d="M2 12.2226C2 8.73787 2 6.99549 2.67818 5.66448C3.27473 4.4937 4.22661 3.54182 5.39739 2.94527C6.7284 2.26709 8.47078 2.26709 11.9556 2.26709H20.0444C23.5292 2.26709 25.2716 2.26709 26.6026 2.94527C27.7734 3.54182 28.7253 4.4937 29.3218 5.66448C30 6.99549 30 8.73787 30 12.2226V20.3115C30 23.7963 30 25.5387 29.3218 26.8697C28.7253 28.0405 27.7734 28.9924 26.6026 29.5889C25.2716 30.2671 23.5292 30.2671 20.0444 30.2671H11.9556C8.47078 30.2671 6.7284 30.2671 5.39739 29.5889C4.22661 28.9924 3.27473 28.0405 2.67818 26.8697C2 25.5387 2 23.7963 2 20.3115V12.2226Z" fill="white"/>
<path d="M24.4925 6.26709H21.2412V10.9783H25.9987V7.59554C26 7.59554 25.7636 6.39557 24.4925 6.26709Z" fill="#1967D2"/>
<path d="M21.2427 26.2452V26.2568V26.267L26.0002 21.5558H25.9575L21.2427 26.2452Z" fill="#1967D2"/>
<path d="M25.9998 21.5557V21.5134L25.9575 21.5557H25.9998Z" fill="#FBBC05"/>
<path d="M26.0002 10.9784H21.2427V21.5135H26.0002V10.9784Z" fill="#FBBC05"/>
<path d="M25.9575 21.5558H21.2427V26.2452L25.9575 21.5558Z" fill="#EA4335"/>
<path d="M21.2427 21.5557H25.9575L26.0002 21.5134H21.2427V21.5557Z" fill="#EA4335"/>
<path d="M21.231 26.2569H21.2425V26.2454L21.231 26.2569Z" fill="#34A853"/>
<path d="M10.6504 21.5134V26.2568H21.231L21.2427 21.5134H10.6504Z" fill="#34A853"/>
<path d="M21.2425 21.5558V21.5134L21.231 26.2568L21.2425 26.2452V21.5558Z" fill="#34A853"/>
<path d="M6 21.5134V24.8114C6.04263 25.8816 7.20002 26.2568 7.20002 26.2568H10.6503V21.5134H6Z" fill="#188038"/>
<path d="M10.6503 10.9785H21.2425V6.26721H7.33437C7.33437 6.26721 6.08525 6.39569 6 7.72286V21.5136H10.6503V10.9785Z" fill="#4285F4"/>
<path d="M14.1155 19.3809C13.8732 19.3809 13.6395 19.3494 13.4145 19.2863C13.1952 19.2231 12.9933 19.1284 12.8087 19.0022C12.624 18.8702 12.4596 18.7067 12.3153 18.5115C12.1769 18.3164 12.0701 18.0898 11.9951 17.8315L13.0596 17.4097C13.1346 17.6967 13.2616 17.9147 13.4404 18.0639C13.6193 18.2074 13.8443 18.2791 14.1155 18.2791C14.2367 18.2791 14.3521 18.2619 14.4617 18.2275C14.5713 18.1873 14.6665 18.1328 14.7473 18.0639C14.8281 17.9951 14.8915 17.9147 14.9377 17.8229C14.9896 17.7253 15.0156 17.6163 15.0156 17.4958C15.0156 17.2433 14.9204 17.0453 14.73 16.9019C14.5454 16.7584 14.2886 16.6867 13.9597 16.6867H13.4491V15.6623H13.9165C14.0318 15.6623 14.1444 15.648 14.254 15.6193C14.3636 15.5906 14.4588 15.5475 14.5396 15.4902C14.6261 15.427 14.6925 15.3496 14.7386 15.2577C14.7906 15.1602 14.8165 15.0483 14.8165 14.922C14.8165 14.7269 14.7473 14.5691 14.6088 14.4486C14.4703 14.3223 14.2828 14.2592 14.0463 14.2592C13.7924 14.2592 13.5962 14.3281 13.4578 14.4658C13.325 14.5978 13.2327 14.747 13.1808 14.9134L12.1422 14.4916C12.1942 14.3482 12.2721 14.2018 12.3759 14.0526C12.4798 13.8977 12.6096 13.76 12.7654 13.6394C12.9269 13.5132 13.1145 13.4128 13.3279 13.3382C13.5414 13.2578 13.7866 13.2177 14.0636 13.2177C14.3463 13.2177 14.6031 13.2578 14.8338 13.3382C15.0704 13.4185 15.2723 13.5304 15.4397 13.6739C15.607 13.8116 15.7368 13.978 15.8291 14.1731C15.9214 14.3625 15.9676 14.5691 15.9676 14.7929C15.9676 14.9651 15.9445 15.12 15.8984 15.2577C15.858 15.3955 15.8032 15.5188 15.7339 15.6279C15.6647 15.7369 15.5839 15.8316 15.4916 15.9119C15.4051 15.9865 15.3156 16.0468 15.2233 16.0927V16.1616C15.5003 16.2706 15.7282 16.4456 15.907 16.6867C16.0917 16.9277 16.184 17.2318 16.184 17.5991C16.184 17.8573 16.1349 18.0955 16.0368 18.3136C15.9388 18.5259 15.7974 18.7124 15.6128 18.8731C15.4339 19.0338 15.2175 19.1571 14.9637 19.2432C14.7098 19.335 14.4271 19.3809 14.1155 19.3809Z" fill="#4285F4"/>
<path d="M18.2507 19.2432V14.681L17.2035 15.12L16.7881 14.1645L18.5277 13.3554H19.3845V19.2432H18.2507Z" fill="#4285F4"/>
</g>
<defs>
<filter id="filter0_d_2942_8463" x="-2" y="-0.73291" width="36" height="36" filterUnits="userSpaceOnUse" color-interpolation-filters="sRGB">
<feFlood flood-opacity="0" result="BackgroundImageFix"/>
<feColorMatrix in="SourceAlpha" type="matrix" values="0 0 0 0 0 0 0 0 0 0 0 0 0 0 0 0 0 0 127 0" result="hardAlpha"/>
<feOffset dy="1"/>
<feGaussianBlur stdDeviation="1"/>
<feColorMatrix type="matrix" values="0 0 0 0 0.0627451 0 0 0 0 0.0941176 0 0 0 0 0.156863 0 0 0 0.05 0"/>
<feBlend mode="normal" in2="BackgroundImageFix" result="effect1_dropShadow_2942_8463"/>
<feBlend mode="normal" in="SourceGraphic" in2="effect1_dropShadow_2942_8463" result="shape"/>
</filter>
</defs>
</svg>
