<svg width="32" height="32" viewBox="0 0 32 32" fill="none" xmlns="http://www.w3.org/2000/svg">
<g style="mix-blend-mode:multiply">
<path d="M18.5595 2.08264L18.5467 8.24318L18.5339 14.4037L17.9459 12.9736V12.9699L17.1831 26.6845C17.9331 28.5033 18.3337 29.475 18.3379 29.4787C18.3422 29.4824 18.7683 29.5044 19.2839 29.5264C20.8435 29.5924 22.7782 29.7354 24.2483 29.8931C24.5892 29.9297 24.879 29.9481 24.9003 29.9334C24.9216 29.9187 24.9259 23.6482 24.9216 15.9952L24.9088 2.08264H18.5595Z" fill="url(#paint0_linear_2942_8377)"/>
<path d="M7.07373 2.06421V15.9915C7.07373 23.6518 7.08225 29.926 7.09504 29.937C7.10782 29.948 7.65753 29.9004 8.32229 29.838C8.98705 29.7757 9.90323 29.695 10.3592 29.662C11.058 29.6107 13.1546 29.497 13.3932 29.4933C13.4657 29.4933 13.4699 29.1816 13.4785 23.5931L13.4912 17.6929L13.9983 18.9251C14.075 19.1157 14.1006 19.1744 14.1773 19.3614L14.9401 5.65053C14.7781 5.25817 14.8634 5.46352 14.6801 5.01615C14.058 3.50168 13.5296 2.22189 13.5083 2.16322L13.4657 2.06055H7.07373V2.06421Z" fill="url(#paint1_linear_2942_8377)"/>
<path d="M7.07373 2.06421L13.487 17.7039V17.6965L13.9941 18.9286C16.8108 25.7895 18.3236 29.4712 18.3321 29.4785C18.3364 29.4822 18.7625 29.5042 19.2781 29.5262C20.8378 29.5922 22.7724 29.7352 24.2426 29.8929C24.5792 29.9295 24.8732 29.9479 24.8903 29.9332L18.5324 14.3999V14.4036L17.9443 12.9735C17.3691 11.5763 16.9856 10.6413 14.6717 5.01613C14.0495 3.50167 13.5211 2.22189 13.4998 2.16322L13.4572 2.06055H10.2655L7.07373 2.06421Z" fill="#E30A17"/>
</g>
<defs>
<linearGradient id="paint0_linear_2942_8377" x1="27.7853" y1="22.9104" x2="17.623" y2="27.3733" gradientUnits="userSpaceOnUse">
<stop stop-color="#B20610"/>
<stop offset="0.255959" stop-color="#B20610"/>
<stop offset="1" stop-color="#590004"/>
</linearGradient>
<linearGradient id="paint1_linear_2942_8377" x1="3.99205" y1="8.17115" x2="14.9823" y2="3.40039" gradientUnits="userSpaceOnUse">
<stop stop-color="#B20610"/>
<stop offset="0.255959" stop-color="#B20610"/>
<stop offset="1" stop-color="#590004"/>
</linearGradient>
</defs>
</svg>
