<svg width="40" height="41" viewBox="0 0 40 41" fill="none" xmlns="http://www.w3.org/2000/svg">
<rect y="0.5" width="40" height="40" rx="20" fill="#CCFBEF"/>
<path d="M16.6665 22.1667C16.6665 22.1667 17.9165 23.8333 19.9998 23.8333C22.0832 23.8333 23.3332 22.1667 23.3332 22.1667M22.4998 18H22.5082M17.4998 18H17.5082M28.3332 20.5C28.3332 25.1024 24.6022 28.8333 19.9998 28.8333C15.3975 28.8333 11.6665 25.1024 11.6665 20.5C11.6665 15.8976 15.3975 12.1667 19.9998 12.1667C24.6022 12.1667 28.3332 15.8976 28.3332 20.5ZM22.9165 18C22.9165 18.2301 22.73 18.4167 22.4998 18.4167C22.2697 18.4167 22.0832 18.2301 22.0832 18C22.0832 17.7699 22.2697 17.5833 22.4998 17.5833C22.73 17.5833 22.9165 17.7699 22.9165 18ZM17.9165 18C17.9165 18.2301 17.73 18.4167 17.4998 18.4167C17.2697 18.4167 17.0832 18.2301 17.0832 18C17.0832 17.7699 17.2697 17.5833 17.4998 17.5833C17.73 17.5833 17.9165 17.7699 17.9165 18Z" stroke="#0E9384" stroke-width="1.66667" stroke-linecap="round" stroke-linejoin="round"/>
</svg>
