<svg width="20" height="23" viewBox="0 0 20 23" fill="none" xmlns="http://www.w3.org/2000/svg">
<path d="M7.08997 8.49998C7.32507 7.83165 7.78912 7.26809 8.39992 6.90912C9.01072 6.55014 9.72886 6.41892 10.4271 6.53869C11.1254 6.65847 11.7588 7.02151 12.215 7.56351C12.6713 8.10551 12.921 8.7915 12.92 9.49998C12.92 11.5 9.91997 12.5 9.91997 12.5M10 16.5H10.01M1 7.44144V15.5585C1 15.9012 1 16.0725 1.05048 16.2253C1.09515 16.3605 1.16816 16.4846 1.26463 16.5893C1.37369 16.7076 1.52345 16.7908 1.82297 16.9572L9.22297 21.0683C9.50658 21.2259 9.64838 21.3046 9.79855 21.3355C9.93146 21.3629 10.0685 21.3629 10.2015 21.3355C10.3516 21.3046 10.4934 21.2259 10.777 21.0683L18.177 16.9572C18.4766 16.7908 18.6263 16.7076 18.7354 16.5893C18.8318 16.4846 18.9049 16.3605 18.9495 16.2253C19 16.0725 19 15.9012 19 15.5585V7.44144C19 7.0988 19 6.92747 18.9495 6.77467C18.9049 6.6395 18.8318 6.51542 18.7354 6.41073C18.6263 6.29239 18.4766 6.20919 18.177 6.04279L10.777 1.93168C10.4934 1.77412 10.3516 1.69534 10.2015 1.66445C10.0685 1.63712 9.93146 1.63712 9.79855 1.66445C9.64838 1.69534 9.50658 1.77412 9.22297 1.93167L1.82297 6.04279C1.52345 6.20919 1.37369 6.29239 1.26463 6.41073C1.16816 6.51542 1.09515 6.6395 1.05048 6.77467C1 6.92747 1 7.09879 1 7.44144Z" stroke="#475467" stroke-width="2" stroke-linecap="round" stroke-linejoin="round"/>
</svg>
