<svg width="39" height="38" viewBox="0 0 39 38" fill="none" xmlns="http://www.w3.org/2000/svg">
<g filter="url(#filter0_dd_4870_6612)">
<mask id="path-2-outside-1_4870_6612" maskUnits="userSpaceOnUse" x="7.04883" y="6" width="24" height="24" fill="black">
<rect fill="white" x="7.04883" y="6" width="24" height="24"/>
<path d="M29.0488 18C29.0488 23.5228 24.5717 28 19.0488 28C17.7187 28 16.4492 27.7403 15.2883 27.2688C15.0661 27.1786 14.955 27.1335 14.8652 27.1133C14.7773 27.0936 14.7123 27.0864 14.6223 27.0864C14.5303 27.0864 14.43 27.1031 14.2296 27.1365L10.2763 27.7954C9.86236 27.8644 9.65538 27.8989 9.5057 27.8347C9.3747 27.7785 9.27031 27.6741 9.21412 27.5431C9.14992 27.3935 9.18442 27.1865 9.25341 26.7725L9.91228 22.8193C9.9457 22.6188 9.9624 22.5186 9.96239 22.4265C9.96238 22.3365 9.95518 22.2715 9.93549 22.1836C9.91536 22.0938 9.87024 21.9828 9.78001 21.7606C9.30854 20.5997 9.04883 19.3302 9.04883 18C9.04883 12.4772 13.526 8 19.0488 8C24.5717 8 29.0488 12.4772 29.0488 18Z"/>
<path d="M21.5131 17.8062C19.382 15.5764 17.2981 14.2328 16.0652 13.926C13.9941 13.8428 12.2476 15.451 12.1641 17.5181C12.0807 19.5852 13.692 21.3284 15.7631 21.4117C17.4885 21.4117 18.9649 20.2211 21.5131 17.8062Z"/>
<path fill-rule="evenodd" clip-rule="evenodd" d="M23.0873 17.8451L22.3179 17.04C21.2063 15.8769 20.0962 14.9334 19.0869 14.2334C18.0963 13.5463 17.1387 13.0491 16.3343 12.849L16.2238 12.8215L16.11 12.8169C13.4251 12.7089 11.161 14.7937 11.0528 17.4734C10.9447 20.1531 13.0335 22.4129 15.7183 22.5208L15.7407 22.5217H15.7631C16.9136 22.5217 17.9267 22.1149 18.9454 21.4389C19.9394 20.7791 21.0098 19.8138 22.2789 18.6112L23.0873 17.8451ZM21.5131 17.8062C21.2301 18.0744 20.9602 18.3276 20.7019 18.5656C18.6338 20.4709 17.2969 21.4117 15.7631 21.4117C13.692 21.3284 12.0807 19.5852 12.1641 17.5181C12.2476 15.451 13.9941 13.8428 16.0652 13.926C17.1457 14.1949 18.88 15.2602 20.7269 17.0206C20.9872 17.2687 21.2498 17.5307 21.5131 17.8062Z"/>
<path d="M18.8375 20.1592C16.1009 18.0764 15.0844 16.935 15.0844 14.8663C15.0844 12.7975 16.7647 11.1204 18.8375 11.1204C20.9103 11.1204 22.5906 12.7975 22.5906 14.8663C22.5906 16.935 21.5266 18.0461 18.8375 20.1592Z"/>
<path fill-rule="evenodd" clip-rule="evenodd" d="M18.8484 21.5634L18.1631 21.0419C16.7959 20.0013 15.7407 19.1121 15.0407 18.1677C14.2948 17.1616 13.9722 16.1246 13.9722 14.8663C13.9722 12.1844 16.1505 10.0104 18.8375 10.0104C21.5245 10.0104 23.7028 12.1844 23.7028 14.8663C23.7028 16.1367 23.3612 17.1664 22.6119 18.1626C21.9108 19.0946 20.8608 19.9821 19.5255 21.0314L18.8484 21.5634ZM15.0844 14.8663C15.0844 16.935 16.1009 18.0764 18.8375 20.1592C21.5266 18.0461 22.5906 16.935 22.5906 14.8663C22.5906 12.7975 20.9103 11.1204 18.8375 11.1204C16.7647 11.1204 15.0844 12.7975 15.0844 14.8663Z"/>
<path d="M18.8375 15.4136C16.064 17.5974 15.0844 18.6377 15.0844 20.7065C15.0844 22.7753 16.7647 24.4524 18.8375 24.4524C20.9103 24.4524 22.5906 22.7753 22.5906 20.7065C22.5906 18.6377 21.5838 17.5974 18.8375 15.4136Z"/>
<path fill-rule="evenodd" clip-rule="evenodd" d="M18.8409 13.997L18.1486 14.5421C16.7744 15.6241 15.7212 16.5137 15.0294 17.4395C14.2841 18.4369 13.9722 19.451 13.9722 20.7065C13.9722 23.3883 16.1505 25.5624 18.8375 25.5624C21.5245 25.5624 23.7027 23.3883 23.7027 20.7065C23.7027 19.4449 23.3806 18.431 22.6336 17.4371C21.9402 16.5145 20.889 15.6257 19.5305 14.5454L18.8409 13.997ZM15.0844 20.7065C15.0844 18.6377 16.064 17.5974 18.8375 15.4136C21.5838 17.5974 22.5906 18.6377 22.5906 20.7065C22.5906 22.7753 20.9103 24.4524 18.8375 24.4524C16.7647 24.4524 15.0844 22.7753 15.0844 20.7065Z"/>
<path d="M16.2062 17.8315C18.593 15.0691 20.7259 14.1611 21.9119 14.1611C23.983 14.2444 25.5943 15.9876 25.5109 18.0547C25.4275 20.1218 23.6809 21.73 21.6098 21.6468C20.7083 21.6105 18.8469 20.4545 16.2062 17.8315Z"/>
<path fill-rule="evenodd" clip-rule="evenodd" d="M14.6876 17.8893L15.3639 17.1066C17.8442 14.236 20.2575 13.0511 21.9119 13.0511L21.9343 13.0511L21.9567 13.052C24.6415 13.1599 26.7303 15.4197 26.6222 18.0994C26.514 20.7791 24.2499 22.8638 21.565 22.7559C21.1387 22.7388 20.7048 22.5989 20.2986 22.4158C19.8796 22.2269 19.4218 21.9603 18.9313 21.6247C17.9502 20.9534 16.7723 19.9599 15.4216 18.6183L14.6876 17.8893ZM21.9119 14.1611C20.7259 14.1611 18.593 15.0691 16.2062 17.8315C18.8469 20.4545 20.7083 21.6105 21.6098 21.6468C23.6809 21.73 25.4275 20.1218 25.5109 18.0547C25.5943 15.9876 23.983 14.2444 21.9119 14.1611Z"/>
</mask>
<path d="M29.0488 18C29.0488 23.5228 24.5717 28 19.0488 28C17.7187 28 16.4492 27.7403 15.2883 27.2688C15.0661 27.1786 14.955 27.1335 14.8652 27.1133C14.7773 27.0936 14.7123 27.0864 14.6223 27.0864C14.5303 27.0864 14.43 27.1031 14.2296 27.1365L10.2763 27.7954C9.86236 27.8644 9.65538 27.8989 9.5057 27.8347C9.3747 27.7785 9.27031 27.6741 9.21412 27.5431C9.14992 27.3935 9.18442 27.1865 9.25341 26.7725L9.91228 22.8193C9.9457 22.6188 9.9624 22.5186 9.96239 22.4265C9.96238 22.3365 9.95518 22.2715 9.93549 22.1836C9.91536 22.0938 9.87024 21.9828 9.78001 21.7606C9.30854 20.5997 9.04883 19.3302 9.04883 18C9.04883 12.4772 13.526 8 19.0488 8C24.5717 8 29.0488 12.4772 29.0488 18Z" fill="url(#paint0_linear_4870_6612)"/>
<path d="M21.5131 17.8062C19.382 15.5764 17.2981 14.2328 16.0652 13.926C13.9941 13.8428 12.2476 15.451 12.1641 17.5181C12.0807 19.5852 13.692 21.3284 15.7631 21.4117C17.4885 21.4117 18.9649 20.2211 21.5131 17.8062Z" fill="#CCFBEF"/>
<path fill-rule="evenodd" clip-rule="evenodd" d="M23.0873 17.8451L22.3179 17.04C21.2063 15.8769 20.0962 14.9334 19.0869 14.2334C18.0963 13.5463 17.1387 13.0491 16.3343 12.849L16.2238 12.8215L16.11 12.8169C13.4251 12.7089 11.161 14.7937 11.0528 17.4734C10.9447 20.1531 13.0335 22.4129 15.7183 22.5208L15.7407 22.5217H15.7631C16.9136 22.5217 17.9267 22.1149 18.9454 21.4389C19.9394 20.7791 21.0098 19.8138 22.2789 18.6112L23.0873 17.8451ZM21.5131 17.8062C21.2301 18.0744 20.9602 18.3276 20.7019 18.5656C18.6338 20.4709 17.2969 21.4117 15.7631 21.4117C13.692 21.3284 12.0807 19.5852 12.1641 17.5181C12.2476 15.451 13.9941 13.8428 16.0652 13.926C17.1457 14.1949 18.88 15.2602 20.7269 17.0206C20.9872 17.2687 21.2498 17.5307 21.5131 17.8062Z" fill="#F0FDF9"/>
<path d="M18.8375 20.1592C16.1009 18.0764 15.0844 16.935 15.0844 14.8663C15.0844 12.7975 16.7647 11.1204 18.8375 11.1204C20.9103 11.1204 22.5906 12.7975 22.5906 14.8663C22.5906 16.935 21.5266 18.0461 18.8375 20.1592Z" fill="#5FE9D0"/>
<path fill-rule="evenodd" clip-rule="evenodd" d="M18.8484 21.5634L18.1631 21.0419C16.7959 20.0013 15.7407 19.1121 15.0407 18.1677C14.2948 17.1616 13.9722 16.1246 13.9722 14.8663C13.9722 12.1844 16.1505 10.0104 18.8375 10.0104C21.5245 10.0104 23.7028 12.1844 23.7028 14.8663C23.7028 16.1367 23.3612 17.1664 22.6119 18.1626C21.9108 19.0946 20.8608 19.9821 19.5255 21.0314L18.8484 21.5634ZM15.0844 14.8663C15.0844 16.935 16.1009 18.0764 18.8375 20.1592C21.5266 18.0461 22.5906 16.935 22.5906 14.8663C22.5906 12.7975 20.9103 11.1204 18.8375 11.1204C16.7647 11.1204 15.0844 12.7975 15.0844 14.8663Z" fill="#F0FDF9"/>
<path d="M18.8375 15.4136C16.064 17.5974 15.0844 18.6377 15.0844 20.7065C15.0844 22.7753 16.7647 24.4524 18.8375 24.4524C20.9103 24.4524 22.5906 22.7753 22.5906 20.7065C22.5906 18.6377 21.5838 17.5974 18.8375 15.4136Z" fill="#5FE9D0"/>
<path fill-rule="evenodd" clip-rule="evenodd" d="M18.8409 13.997L18.1486 14.5421C16.7744 15.6241 15.7212 16.5137 15.0294 17.4395C14.2841 18.4369 13.9722 19.451 13.9722 20.7065C13.9722 23.3883 16.1505 25.5624 18.8375 25.5624C21.5245 25.5624 23.7027 23.3883 23.7027 20.7065C23.7027 19.4449 23.3806 18.431 22.6336 17.4371C21.9402 16.5145 20.889 15.6257 19.5305 14.5454L18.8409 13.997ZM15.0844 20.7065C15.0844 18.6377 16.064 17.5974 18.8375 15.4136C21.5838 17.5974 22.5906 18.6377 22.5906 20.7065C22.5906 22.7753 20.9103 24.4524 18.8375 24.4524C16.7647 24.4524 15.0844 22.7753 15.0844 20.7065Z" fill="#F0FDF9"/>
<path d="M16.2062 17.8315C18.593 15.0691 20.7259 14.1611 21.9119 14.1611C23.983 14.2444 25.5943 15.9876 25.5109 18.0547C25.4275 20.1218 23.6809 21.73 21.6098 21.6468C20.7083 21.6105 18.8469 20.4545 16.2062 17.8315Z" fill="url(#paint1_linear_4870_6612)"/>
<path fill-rule="evenodd" clip-rule="evenodd" d="M14.6876 17.8893L15.3639 17.1066C17.8442 14.236 20.2575 13.0511 21.9119 13.0511L21.9343 13.0511L21.9567 13.052C24.6415 13.1599 26.7303 15.4197 26.6222 18.0994C26.514 20.7791 24.2499 22.8638 21.565 22.7559C21.1387 22.7388 20.7048 22.5989 20.2986 22.4158C19.8796 22.2269 19.4218 21.9603 18.9313 21.6247C17.9502 20.9534 16.7723 19.9599 15.4216 18.6183L14.6876 17.8893ZM21.9119 14.1611C20.7259 14.1611 18.593 15.0691 16.2062 17.8315C18.8469 20.4545 20.7083 21.6105 21.6098 21.6468C23.6809 21.73 25.4275 20.1218 25.5109 18.0547C25.5943 15.9876 23.983 14.2444 21.9119 14.1611Z" fill="#F0FDF9"/>
<path d="M18.8375 20.1592L18.3833 20.756L18.8448 21.1073L19.3009 20.7489L18.8375 20.1592ZM18.8375 15.4136L19.3043 14.8265L18.8398 14.4572L18.3735 14.8243L18.8375 15.4136ZM16.2062 17.8315L15.6387 17.3412L15.1812 17.8706L15.6776 18.3636L16.2062 17.8315ZM21.9119 14.1611L21.942 13.4117L21.927 13.4111H21.9119V14.1611ZM21.6098 21.6468L21.6399 20.8974L21.6098 21.6468ZM16.0953 13.1766C13.6118 13.0768 11.5149 15.0056 11.4147 17.4878L12.9135 17.5483C12.9802 15.8964 14.3765 14.6087 16.0351 14.6754L16.0953 13.1766ZM11.4147 17.4878C11.3145 19.9702 13.2493 22.0612 15.733 22.1611L15.7932 20.6623C14.1347 20.5956 12.8468 19.2002 12.9135 17.5483L11.4147 17.4878ZM19.2917 19.5624C17.9227 18.5204 17.0633 17.7705 16.5373 17.0609C16.0422 16.393 15.8344 15.749 15.8344 14.8663H14.3344C14.3344 16.0523 14.6349 17.0134 15.3322 17.9541C15.9986 18.853 17.0157 19.7152 18.3833 20.756L19.2917 19.5624ZM15.8344 14.8663C15.8344 13.213 17.1776 11.8704 18.8375 11.8704V10.3704C16.3519 10.3704 14.3344 12.3819 14.3344 14.8663H15.8344ZM18.8375 11.8704C20.4974 11.8704 21.8406 13.2131 21.8406 14.8663H23.3406C23.3406 12.3819 21.3231 10.3704 18.8375 10.3704V11.8704ZM21.8406 14.8663C21.8406 15.7408 21.6258 16.377 21.1231 17.0453C20.5878 17.757 19.7249 18.508 18.3741 19.5695L19.3009 20.7489C20.6392 19.6973 21.6529 18.8363 22.3218 17.947C23.0234 17.0143 23.3406 16.0605 23.3406 14.8663H21.8406ZM18.3735 14.8243C16.9952 15.9096 15.9794 16.772 15.3201 17.6542C14.6246 18.5849 14.3344 19.5224 14.3344 20.7065H15.8344C15.8344 19.8219 16.034 19.2048 16.5217 18.5521C17.0456 17.8511 17.9062 17.1014 19.3015 16.0028L18.3735 14.8243ZM14.3344 20.7065C14.3344 23.1909 16.3519 25.2024 18.8375 25.2024V23.7024C17.1776 23.7024 15.8344 22.3597 15.8344 20.7065H14.3344ZM18.8375 25.2024C21.3231 25.2024 23.3406 23.1909 23.3406 20.7065H21.8406C21.8406 22.3597 20.4974 23.7024 18.8375 23.7024V25.2024ZM23.3406 20.7065C23.3406 19.5182 23.0412 18.5809 22.3435 17.6526C21.682 16.7725 20.6676 15.9106 19.3043 14.8265L18.3707 16.0006C19.7538 17.1004 20.6158 17.8505 21.1444 18.5538C21.6366 19.2088 21.8406 19.826 21.8406 20.7065H23.3406ZM16.7737 18.3219C19.0973 15.6327 21.0412 14.9111 21.9119 14.9111V13.4111C20.4106 13.4111 18.0887 14.5056 15.6387 17.3412L16.7737 18.3219ZM21.8818 14.9105C23.5403 14.9772 24.8282 16.3726 24.7615 18.0245L26.2603 18.0849C26.3605 15.6026 24.4257 13.5116 21.942 13.4117L21.8818 14.9105ZM24.7615 18.0245C24.6948 19.6764 23.2985 20.9641 21.6399 20.8974L21.5797 22.3962C24.0632 22.496 26.1601 20.5672 26.2603 18.0849L24.7615 18.0245ZM21.6399 20.8974C21.5498 20.8937 21.3645 20.8556 21.0648 20.7205C20.7738 20.5893 20.4133 20.3841 19.9837 20.0902C19.1248 19.5025 18.0346 18.5906 16.7347 17.2994L15.6776 18.3636C17.0184 19.6954 18.1793 20.6731 19.1367 21.3281C19.6153 21.6556 20.0541 21.9102 20.4482 22.0879C20.8336 22.2617 21.219 22.3817 21.5797 22.3962L21.6399 20.8974ZM9.91228 22.8193L8.43269 22.5727L9.91228 22.8193ZM9.96239 22.4265L11.4624 22.4263L9.96239 22.4265ZM9.78001 21.7606L8.39025 22.325L9.78001 21.7606ZM9.93549 22.1836L8.47181 22.5117L9.93549 22.1836ZM10.2763 27.7954L10.5229 29.275L10.5229 29.275L10.2763 27.7954ZM9.5057 27.8347L10.097 26.4562L9.5057 27.8347ZM9.25341 26.7725L10.733 27.0191V27.0191L9.25341 26.7725ZM9.21412 27.5431L10.5927 26.9519L9.21412 27.5431ZM15.2883 27.2688L14.7238 28.6586L15.2883 27.2688ZM14.8652 27.1133L14.5371 28.577L14.8652 27.1133ZM14.2296 27.1365L13.983 25.657H13.983L14.2296 27.1365ZM14.6223 27.0864L14.6221 28.5864L14.6223 27.0864ZM21.5131 17.8062L22.5449 18.895L23.6383 17.8588L22.5975 16.7698L21.5131 17.8062ZM22.3179 17.04L21.2335 18.0764H21.2335L22.3179 17.04ZM23.0873 17.8451L24.1191 18.9338L25.2125 17.8977L24.1717 16.8087L23.0873 17.8451ZM19.0869 14.2334L18.2321 15.466L19.0869 14.2334ZM16.3343 12.849L15.972 14.3046L15.972 14.3046L16.3343 12.849ZM16.2238 12.8215L16.586 11.3659L16.4372 11.3288L16.284 11.3227L16.2238 12.8215ZM16.11 12.8169L16.1702 11.3181H16.1702L16.11 12.8169ZM15.7183 22.5208L15.6581 24.0196H15.6581L15.7183 22.5208ZM15.7407 22.5217L15.6805 24.0205L15.7106 24.0217H15.7407V22.5217ZM15.7631 22.5217V21.0217V22.5217ZM18.9454 21.4389L19.7748 22.6887H19.7748L18.9454 21.4389ZM22.2789 18.6112L23.3107 19.6999L22.2789 18.6112ZM20.7019 18.5656L21.7182 19.6688H21.7182L20.7019 18.5656ZM20.7269 17.0206L21.7618 15.9348L21.7618 15.9348L20.7269 17.0206ZM18.1631 21.0419L17.2547 22.2355L17.2547 22.2355L18.1631 21.0419ZM18.8484 21.5634L17.9399 22.7571L18.8631 23.4596L19.7752 22.7429L18.8484 21.5634ZM15.0407 18.1677L16.2457 17.2745L16.2457 17.2745L15.0407 18.1677ZM13.9722 14.8663H12.4722H13.9722ZM18.8375 10.0104V11.5104V10.0104ZM23.7028 14.8663H22.2028H23.7028ZM22.6119 18.1626L21.4131 17.2609L22.6119 18.1626ZM19.5255 21.0314L20.4523 22.2108L20.4523 22.2108L19.5255 21.0314ZM18.1486 14.5421L17.2207 13.3636V13.3636L18.1486 14.5421ZM18.8409 13.997L19.7745 12.8229L18.8455 12.0842L17.9129 12.8185L18.8409 13.997ZM15.0294 17.4395L13.8278 16.5416L15.0294 17.4395ZM13.9722 20.7065H12.4722H13.9722ZM18.8375 25.5624V27.0624V25.5624ZM22.6336 17.4371L21.4345 18.3383L22.6336 17.4371ZM19.5305 14.5454L18.5969 15.7194L18.5969 15.7194L19.5305 14.5454ZM15.3639 17.1066L14.2289 16.1259L15.3639 17.1066ZM14.6876 17.8893L13.5526 16.9086L12.6378 17.9674L13.6306 18.9535L14.6876 17.8893ZM21.9119 13.0511L21.9119 14.5511H21.9119L21.9119 13.0511ZM21.9343 13.0511L21.9946 11.5523L21.9644 11.5511L21.9343 11.5511L21.9343 13.0511ZM21.9567 13.052L22.0169 11.5532L22.0169 11.5532L21.9567 13.052ZM21.565 22.7559L21.6253 21.2571L21.565 22.7559ZM20.2986 22.4158L20.9152 21.0484L20.2986 22.4158ZM18.9313 21.6247L18.0842 22.8626L18.9313 21.6247ZM15.4216 18.6183L16.4787 17.5541H16.4787L15.4216 18.6183ZM19.0488 29.5C25.4001 29.5 30.5488 24.3513 30.5488 18H27.5488C27.5488 22.6944 23.7432 26.5 19.0488 26.5V29.5ZM14.7238 28.6586C16.061 29.2016 17.5219 29.5 19.0488 29.5V26.5C17.9154 26.5 16.8374 26.279 15.8527 25.8791L14.7238 28.6586ZM10.5229 29.275L14.4761 28.6161L13.983 25.657L10.0297 26.3158L10.5229 29.275ZM8.43269 22.5727L7.77382 26.5259L10.733 27.0191L11.3919 23.0659L8.43269 22.5727ZM7.54883 18C7.54883 19.5269 7.84721 20.9879 8.39025 22.325L11.1698 21.1961C10.7699 20.2115 10.5488 19.1334 10.5488 18H7.54883ZM19.0488 6.5C12.6976 6.5 7.54883 11.6487 7.54883 18H10.5488C10.5488 13.3056 14.3544 9.5 19.0488 9.5V6.5ZM30.5488 18C30.5488 11.6487 25.4001 6.5 19.0488 6.5V9.5C23.7432 9.5 27.5488 13.3056 27.5488 18H30.5488ZM11.3919 23.0659C11.4162 22.9197 11.4624 22.6728 11.4624 22.4263L8.46239 22.4267C8.46239 22.3794 8.46706 22.3542 8.46346 22.3808C8.46163 22.3943 8.45856 22.415 8.45317 22.4485C8.44776 22.4822 8.44126 22.5213 8.43269 22.5727L11.3919 23.0659ZM8.39025 22.325C8.41323 22.3816 8.4314 22.4263 8.44692 22.4651C8.46246 22.5039 8.4727 22.5302 8.47979 22.5491C8.49599 22.5922 8.48422 22.5671 8.47181 22.5117L11.3992 21.8556C11.3447 21.6125 11.2344 21.3554 11.1698 21.1961L8.39025 22.325ZM11.4624 22.4263C11.4624 22.226 11.443 22.051 11.3992 21.8556L8.47181 22.5117C8.47254 22.515 8.46856 22.4976 8.46544 22.4694C8.46231 22.4412 8.46239 22.4234 8.46239 22.4267L11.4624 22.4263ZM10.0297 26.3158C9.92255 26.3337 9.84567 26.3465 9.78091 26.3561C9.71567 26.3659 9.68729 26.3686 9.67901 26.3693C9.67019 26.3699 9.71131 26.3659 9.78104 26.3729C9.85736 26.3805 9.96964 26.4015 10.097 26.4562L8.91442 29.2133C9.31741 29.3861 9.69231 29.3768 9.90481 29.3608C10.1102 29.3453 10.3439 29.3049 10.5229 29.275L10.0297 26.3158ZM7.77382 26.5259C7.74398 26.705 7.70358 26.9386 7.68807 27.144C7.67203 27.3565 7.66273 27.7314 7.83557 28.1344L10.5927 26.9519C10.6473 27.0792 10.6683 27.1915 10.676 27.2678C10.683 27.3375 10.6789 27.3786 10.6796 27.3698C10.6802 27.3615 10.683 27.3332 10.6927 27.2679C10.7024 27.2032 10.7151 27.1263 10.733 27.0191L7.77382 26.5259ZM10.097 26.4562C10.3197 26.5517 10.4971 26.7292 10.5927 26.9519L7.83557 28.1344C8.04346 28.6191 8.42971 29.0054 8.91442 29.2133L10.097 26.4562ZM15.8527 25.8791C15.6935 25.8144 15.4363 25.7041 15.1933 25.6497L14.5371 28.577C14.4817 28.5646 14.4566 28.5528 14.4997 28.569C14.5186 28.5761 14.5449 28.5864 14.5837 28.6019C14.6225 28.6174 14.6673 28.6356 14.7238 28.6586L15.8527 25.8791ZM14.4761 28.6161C14.5275 28.6076 14.5666 28.6011 14.6003 28.5957C14.6339 28.5903 14.6545 28.5872 14.668 28.5854C14.6946 28.5818 14.6694 28.5864 14.6221 28.5864L14.6225 25.5864C14.3761 25.5864 14.1292 25.6326 13.983 25.657L14.4761 28.6161ZM15.1933 25.6497C14.9978 25.6058 14.8228 25.5865 14.6225 25.5864L14.6221 28.5864C14.6255 28.5864 14.6076 28.5865 14.5794 28.5834C14.5512 28.5803 14.5338 28.5763 14.5371 28.577L15.1933 25.6497ZM22.5975 16.7698C21.4698 15.5898 20.3401 14.6288 19.3071 13.9124C18.2993 13.2134 17.2971 12.6868 16.4274 12.4704L15.703 15.3816C16.0662 15.472 16.7224 15.7706 17.5974 16.3775C18.4475 16.9671 19.4253 17.7927 20.4287 18.8426L22.5975 16.7698ZM15.7631 22.9117C17.0132 22.9117 18.1001 22.4671 19.159 21.7643C20.1847 21.0836 21.2776 20.096 22.5449 18.895L20.4813 16.7174C19.2004 17.9313 18.281 18.7465 17.5001 19.2647C16.7524 19.761 16.2384 19.9117 15.7631 19.9117V22.9117ZM21.2335 18.0764L22.0029 18.8815L24.1717 16.8087L23.4022 16.0036L21.2335 18.0764ZM18.2321 15.466C19.1499 16.1025 20.184 16.9784 21.2335 18.0764L23.4022 16.0036C22.2285 14.7755 21.0425 13.7642 19.9418 13.0008L18.2321 15.466ZM15.972 14.3046C16.5234 14.4418 17.308 14.8251 18.2321 15.466L19.9418 13.0008C18.8845 12.2676 17.7539 11.6565 16.6965 11.3934L15.972 14.3046ZM15.8615 14.2771L15.972 14.3046L16.6965 11.3934L16.586 11.3659L15.8615 14.2771ZM16.0497 14.3157L16.1635 14.3203L16.284 11.3227L16.1702 11.3181L16.0497 14.3157ZM12.5516 17.5339C12.6263 15.6846 14.1898 14.2409 16.0497 14.3157L16.1702 11.3181C12.6605 11.177 9.69573 13.9029 9.55406 17.4129L12.5516 17.5339ZM15.7786 21.022C13.9189 20.9473 12.477 19.383 12.5516 17.5339L9.55406 17.4129C9.41239 20.9231 12.1481 23.8785 15.6581 24.0196L15.7786 21.022ZM15.801 21.0229L15.7786 21.022L15.6581 24.0196L15.6805 24.0205L15.801 21.0229ZM15.7631 21.0217H15.7407V24.0217H15.7631V21.0217ZM18.1159 20.1891C17.2525 20.7621 16.5259 21.0217 15.7631 21.0217V24.0217C17.3013 24.0217 18.6009 23.4678 19.7748 22.6887L18.1159 20.1891ZM21.2471 17.5224C19.9716 18.7312 18.9877 19.6105 18.1159 20.1891L19.7748 22.6887C20.8911 21.9478 22.0481 20.8965 23.3107 19.6999L21.2471 17.5224ZM22.0555 16.7563L21.2471 17.5224L23.3107 19.6999L24.1191 18.9338L22.0555 16.7563ZM21.7182 19.6688C21.9834 19.4245 22.2586 19.1663 22.5449 18.895L20.4813 16.7174C20.2016 16.9825 19.9371 17.2306 19.6855 17.4624L21.7182 19.6688ZM15.7631 22.9117C17.9582 22.9117 19.7002 21.528 21.7182 19.6688L19.6855 17.4624C17.5674 19.4138 16.6355 19.9117 15.7631 19.9117V22.9117ZM21.7618 15.9348C19.8528 14.1151 17.8881 12.8339 16.4274 12.4704L15.703 15.3816C16.4033 15.5559 17.9073 16.4052 19.6919 18.1064L21.7618 15.9348ZM22.5975 16.7698C22.3182 16.4776 22.0391 16.1991 21.7618 15.9348L19.6919 18.1064C19.9353 18.3383 20.1814 18.5838 20.4287 18.8426L22.5975 16.7698ZM17.2547 22.2355L17.9399 22.7571L19.7568 20.3698L19.0716 19.8483L17.2547 22.2355ZM13.8356 19.061C14.6757 20.1943 15.8881 21.1955 17.2547 22.2355L19.0716 19.8483C17.7036 18.8072 16.8057 18.03 16.2457 17.2745L13.8356 19.061ZM12.4722 14.8663C12.4722 16.4278 12.8875 17.7819 13.8356 19.061L16.2457 17.2745C15.7022 16.5412 15.4722 15.8215 15.4722 14.8663H12.4722ZM18.8375 8.51037C15.3248 8.51037 12.4722 11.3533 12.4722 14.8663H15.4722C15.4722 13.0156 16.9762 11.5104 18.8375 11.5104V8.51037ZM25.2028 14.8663C25.2028 11.3533 22.3502 8.51037 18.8375 8.51037V11.5104C20.6988 11.5104 22.2028 13.0156 22.2028 14.8663H25.2028ZM23.8106 19.0643C24.7588 17.8036 25.2028 16.4563 25.2028 14.8663H22.2028C22.2028 15.8171 21.9635 16.5292 21.4131 17.2609L23.8106 19.0643ZM20.4523 22.2108C21.776 21.1706 22.9762 20.1736 23.8106 19.0643L21.4131 17.2609C20.8454 18.0156 19.9456 18.7936 18.5987 19.8519L20.4523 22.2108ZM19.7752 22.7429L20.4523 22.2108L18.5987 19.8519L17.9216 20.384L19.7752 22.7429ZM19.0766 15.7206L19.7688 15.1755L17.9129 12.8185L17.2207 13.3636L19.0766 15.7206ZM16.2309 18.3374C16.7876 17.5924 17.6864 16.8152 19.0766 15.7206L17.2207 13.3636C15.8624 14.4331 14.6547 15.435 13.8278 16.5416L16.2309 18.3374ZM15.4722 20.7065C15.4722 19.7503 15.6935 19.0566 16.2309 18.3374L13.8278 16.5416C12.8746 17.8171 12.4722 19.1517 12.4722 20.7065H15.4722ZM18.8375 24.0624C16.9762 24.0624 15.4722 22.5572 15.4722 20.7065H12.4722C12.4722 24.2195 15.3248 27.0624 18.8375 27.0624V24.0624ZM22.2027 20.7065C22.2027 22.5572 20.6988 24.0624 18.8375 24.0624V27.0624C22.3502 27.0624 25.2027 24.2195 25.2027 20.7065H22.2027ZM21.4345 18.3383C21.9759 19.0587 22.2027 19.7525 22.2027 20.7065H25.2027C25.2027 19.1373 24.7852 17.8033 23.8327 16.5359L21.4345 18.3383ZM18.5969 15.7194C19.9742 16.8146 20.8737 17.5922 21.4345 18.3383L23.8327 16.5359C23.0067 15.4369 21.8039 14.4367 20.4641 13.3713L18.5969 15.7194ZM17.9073 15.1711L18.5969 15.7194L20.4641 13.3713L19.7745 12.8229L17.9073 15.1711ZM14.2289 16.1259L13.5526 16.9086L15.8226 18.87L16.4989 18.0873L14.2289 16.1259ZM21.9119 11.5511C19.626 11.5511 16.8348 13.11 14.2289 16.1259L16.4989 18.0873C18.8536 15.3621 20.889 14.5511 21.9119 14.5511L21.9119 11.5511ZM21.9343 11.5511L21.9119 11.5511L21.9119 14.5511L21.9343 14.5511L21.9343 11.5511ZM22.0169 11.5532L21.9946 11.5523L21.874 14.5499L21.8964 14.5508L22.0169 11.5532ZM28.1209 18.1599C28.2626 14.6497 25.5269 11.6943 22.0169 11.5532L21.8964 14.5508C23.7561 14.6255 25.198 16.1898 25.1234 18.0389L28.1209 18.1599ZM21.5048 24.2547C25.0146 24.3958 27.9793 21.6699 28.1209 18.1599L25.1234 18.0389C25.0487 19.8882 23.4852 21.3319 21.6253 21.2571L21.5048 24.2547ZM19.682 23.7832C20.1744 24.0052 20.8081 24.2267 21.5048 24.2547L21.6253 21.2571C21.4692 21.2508 21.2352 21.1927 20.9152 21.0484L19.682 23.7832ZM18.0842 22.8626C18.6238 23.2318 19.1599 23.5478 19.682 23.7832L20.9152 21.0484C20.5992 20.9059 20.2197 20.6888 19.7784 20.3868L18.0842 22.8626ZM14.3645 19.6826C15.7561 21.0648 17.0047 22.124 18.0842 22.8626L19.7784 20.3868C18.8957 19.7828 17.7885 18.8551 16.4787 17.5541L14.3645 19.6826ZM13.6306 18.9535L14.3645 19.6826L16.4787 17.5541L15.7447 16.825L13.6306 18.9535Z" fill="#2ED3B7" mask="url(#path-2-outside-1_4870_6612)"/>
</g>
<defs>
<filter id="filter0_dd_4870_6612" x="0.0488281" y="0" width="38" height="38" filterUnits="userSpaceOnUse" color-interpolation-filters="sRGB">
<feFlood flood-opacity="0" result="BackgroundImageFix"/>
<feColorMatrix in="SourceAlpha" type="matrix" values="0 0 0 0 0 0 0 0 0 0 0 0 0 0 0 0 0 0 127 0" result="hardAlpha"/>
<feOffset dy="1"/>
<feGaussianBlur stdDeviation="1"/>
<feColorMatrix type="matrix" values="0 0 0 0 0.0627451 0 0 0 0 0.0941176 0 0 0 0 0.156863 0 0 0 0.06 0"/>
<feBlend mode="normal" in2="BackgroundImageFix" result="effect1_dropShadow_4870_6612"/>
<feColorMatrix in="SourceAlpha" type="matrix" values="0 0 0 0 0 0 0 0 0 0 0 0 0 0 0 0 0 0 127 0" result="hardAlpha"/>
<feOffset dy="1"/>
<feGaussianBlur stdDeviation="1.5"/>
<feColorMatrix type="matrix" values="0 0 0 0 0.0627451 0 0 0 0 0.0941176 0 0 0 0 0.156863 0 0 0 0.1 0"/>
<feBlend mode="normal" in2="effect1_dropShadow_4870_6612" result="effect2_dropShadow_4870_6612"/>
<feBlend mode="normal" in="SourceGraphic" in2="effect2_dropShadow_4870_6612" result="shape"/>
</filter>
<linearGradient id="paint0_linear_4870_6612" x1="34.4927" y1="3.41106" x2="19.0915" y2="28.0267" gradientUnits="userSpaceOnUse">
<stop offset="0.205139" stop-color="#F6FEFC" stop-opacity="0.88"/>
<stop offset="1" stop-color="#F6FEFC"/>
</linearGradient>
<linearGradient id="paint1_linear_4870_6612" x1="9.04852" y1="27.9999" x2="29.0486" y2="7.99976" gradientUnits="userSpaceOnUse">
<stop stop-color="#134E48"/>
<stop offset="1" stop-color="#0E9384"/>
</linearGradient>
</defs>
</svg>
