<svg width="56" height="56" viewBox="0 0 56 56" fill="none" xmlns="http://www.w3.org/2000/svg">
<rect x="4" y="4" width="48" height="48" rx="24" fill="#CCFBEF"/>
<path d="M24 30C24 30 25.5 32 28 32C30.5 32 32 30 32 30M31 25H31.01M25 25H25.01M38 28C38 33.5228 33.5228 38 28 38C22.4772 38 18 33.5228 18 28C18 22.4772 22.4772 18 28 18C33.5228 18 38 22.4772 38 28ZM31.5 25C31.5 25.2761 31.2761 25.5 31 25.5C30.7239 25.5 30.5 25.2761 30.5 25C30.5 24.7239 30.7239 24.5 31 24.5C31.2761 24.5 31.5 24.7239 31.5 25ZM25.5 25C25.5 25.2761 25.2761 25.5 25 25.5C24.7239 25.5 24.5 25.2761 24.5 25C24.5 24.7239 24.7239 24.5 25 24.5C25.2761 24.5 25.5 24.7239 25.5 25Z" stroke="#0E9384" stroke-width="2" stroke-linecap="round" stroke-linejoin="round"/>
<rect x="4" y="4" width="48" height="48" rx="24" stroke="#F0FDF9" stroke-width="8"/>
</svg>
